<?xml version="1.0" encoding="UTF-8"?>
<svg id="Layer_2" data-name="Layer 2" xmlns="http://www.w3.org/2000/svg" xmlns:xlink="http://www.w3.org/1999/xlink" viewBox="0 0 246.58 461.24">
  <defs>
    <style>
      .cls-1 {
        fill: none;
      }

      .cls-2 {
        fill: url(#linear-gradient-8);
      }

      .cls-3 {
        fill: url(#linear-gradient-7);
      }

      .cls-4 {
        fill: url(#linear-gradient-5);
      }

      .cls-5 {
        fill: url(#linear-gradient-6);
      }

      .cls-6 {
        fill: url(#linear-gradient-9);
      }

      .cls-7 {
        fill: url(#linear-gradient-4);
      }

      .cls-8 {
        fill: url(#linear-gradient-3);
      }

      .cls-9 {
        fill: url(#linear-gradient-2);
      }

      .cls-10 {
        fill: url(#linear-gradient);
      }

      .cls-11 {
        fill: url(#linear-gradient-10);
      }

      .cls-12 {
        fill: url(#linear-gradient-11);
      }

      .cls-13 {
        fill: url(#linear-gradient-12);
      }

      .cls-14 {
        fill: url(#linear-gradient-13);
      }

      .cls-15 {
        fill: url(#linear-gradient-19);
      }

      .cls-16 {
        fill: url(#linear-gradient-14);
      }

      .cls-17 {
        fill: url(#linear-gradient-21);
      }

      .cls-18 {
        fill: url(#linear-gradient-20);
      }

      .cls-19 {
        fill: url(#linear-gradient-22);
      }

      .cls-20 {
        fill: url(#linear-gradient-23);
      }

      .cls-21 {
        fill: url(#linear-gradient-28);
      }

      .cls-22 {
        fill: url(#linear-gradient-25);
      }

      .cls-23 {
        fill: url(#linear-gradient-32);
      }

      .cls-24 {
        fill: url(#linear-gradient-31);
      }

      .cls-25 {
        fill: url(#linear-gradient-33);
      }

      .cls-26 {
        fill: url(#linear-gradient-30);
      }

      .cls-27 {
        fill: url(#linear-gradient-15);
      }

      .cls-28 {
        fill: url(#linear-gradient-16);
      }

      .cls-29 {
        fill: url(#linear-gradient-17);
      }

      .cls-30 {
        fill: url(#linear-gradient-18);
      }

      .cls-31 {
        fill: url(#linear-gradient-35);
      }

      .cls-32 {
        fill: url(#linear-gradient-34);
      }

      .cls-33 {
        fill: url(#linear-gradient-36);
      }

      .cls-34 {
        fill: url(#linear-gradient-38);
      }

      .cls-35 {
        fill: url(#linear-gradient-27);
      }

      .cls-36 {
        fill: url(#linear-gradient-24);
      }

      .cls-37 {
        fill: url(#linear-gradient-26);
      }

      .cls-38 {
        fill: url(#linear-gradient-29);
      }

      .cls-39 {
        fill: url(#linear-gradient-37);
      }

      .cls-40 {
        fill: url(#linear-gradient-39);
      }

      .cls-41 {
        opacity: .61;
      }

      .cls-42 {
        clip-path: url(#clippath);
      }
    </style>
    <clipPath id="clippath">
      <rect class="cls-1" width="246.58" height="461.24"/>
    </clipPath>
    <linearGradient id="linear-gradient" x1="125.58" y1="4.91" x2="133.69" y2="559.77" gradientUnits="userSpaceOnUse">
      <stop offset="0" stop-color="#f29c00"/>
      <stop offset="1" stop-color="#1c87ba"/>
    </linearGradient>
    <linearGradient id="linear-gradient-2" x1="125.72" y1="42.43" x2="125.72" y2="-13" gradientUnits="userSpaceOnUse">
      <stop offset="0" stop-color="#fff" stop-opacity="0"/>
      <stop offset=".06" stop-color="#fff" stop-opacity=".11"/>
      <stop offset=".2" stop-color="#fff" stop-opacity=".34"/>
      <stop offset=".35" stop-color="#fff" stop-opacity=".54"/>
      <stop offset=".49" stop-color="#fff" stop-opacity=".71"/>
      <stop offset=".62" stop-color="#fff" stop-opacity=".83"/>
      <stop offset=".75" stop-color="#fff" stop-opacity=".93"/>
      <stop offset=".88" stop-color="#fff" stop-opacity=".98"/>
      <stop offset=".98" stop-color="#fff"/>
    </linearGradient>
    <linearGradient id="linear-gradient-3" y1="25.45" y2="3.99" xlink:href="#linear-gradient-2"/>
    <linearGradient id="linear-gradient-4" x1="-1.13" y1="492.96" x2="-1.13" y2="64.91" gradientTransform="translate(-280.07 277.8) rotate(-90)" gradientUnits="userSpaceOnUse">
      <stop offset=".04" stop-color="#fff" stop-opacity="0"/>
      <stop offset=".27" stop-color="#fff" stop-opacity=".23"/>
      <stop offset=".81" stop-color="#fff" stop-opacity=".81"/>
      <stop offset=".98" stop-color="#fff"/>
    </linearGradient>
    <linearGradient id="linear-gradient-5" x1="-1.13" y1="67.2" x2="-1.13" y2="58.78" gradientTransform="translate(-64.13 61.86) rotate(-90)" xlink:href="#linear-gradient-4"/>
    <linearGradient id="linear-gradient-6" x1="-1.13" y1="58.78" x2="-1.13" y2="43.88" gradientTransform="translate(-52.47 50.2) rotate(-90)" xlink:href="#linear-gradient-4"/>
    <linearGradient id="linear-gradient-7" x1="-1.13" y1="46.74" x2="-1.13" y2="27.96" gradientTransform="matrix(1,0,0,1,0,0)" xlink:href="#linear-gradient-4"/>
    <linearGradient id="linear-gradient-8" x1="-3.17" y1="272.03" x2=".2" y2="272.03" gradientTransform="matrix(1,0,0,1,0,0)" xlink:href="#linear-gradient-4"/>
    <linearGradient id="linear-gradient-9" x1="2.73" y1="272.03" x2="6.11" y2="272.03" gradientTransform="matrix(1,0,0,1,0,0)" xlink:href="#linear-gradient-4"/>
    <linearGradient id="linear-gradient-10" x1="8.08" y1="272.03" x2="11.45" y2="272.03" gradientTransform="matrix(1,0,0,1,0,0)" xlink:href="#linear-gradient-4"/>
    <linearGradient id="linear-gradient-11" x1="80.75" x2="80.75" gradientTransform="translate(-198.19 359.68) rotate(-90)" xlink:href="#linear-gradient-4"/>
    <linearGradient id="linear-gradient-12" x1="80.75" y1="67.2" x2="80.75" y2="58.78" gradientTransform="translate(17.75 143.74) rotate(-90)" xlink:href="#linear-gradient-4"/>
    <linearGradient id="linear-gradient-13" x1="80.75" y1="58.78" x2="80.75" y2="43.88" gradientTransform="translate(29.41 132.08) rotate(-90)" xlink:href="#linear-gradient-4"/>
    <linearGradient id="linear-gradient-14" x1="80.75" y1="46.74" x2="80.75" y2="27.96" gradientTransform="matrix(1,0,0,1,0,0)" xlink:href="#linear-gradient-4"/>
    <linearGradient id="linear-gradient-15" x1="67.18" y1="272.03" x2="70.56" y2="272.03" gradientTransform="matrix(1,0,0,1,0,0)" xlink:href="#linear-gradient-4"/>
    <linearGradient id="linear-gradient-16" x1="73.09" y1="272.03" x2="76.46" y2="272.03" gradientTransform="matrix(1,0,0,1,0,0)" xlink:href="#linear-gradient-4"/>
    <linearGradient id="linear-gradient-17" x1="78.71" y1="272.03" x2="82.08" y2="272.03" gradientTransform="matrix(1,0,0,1,0,0)" xlink:href="#linear-gradient-4"/>
    <linearGradient id="linear-gradient-18" x1="84.61" y1="272.03" x2="87.99" y2="272.03" gradientTransform="matrix(1,0,0,1,0,0)" xlink:href="#linear-gradient-4"/>
    <linearGradient id="linear-gradient-19" x1="89.96" y1="272.03" x2="93.33" y2="272.03" gradientTransform="matrix(1,0,0,1,0,0)" xlink:href="#linear-gradient-4"/>
    <linearGradient id="linear-gradient-20" x1="244.5" x2="244.5" gradientTransform="translate(-34.43 523.44) rotate(-90)" xlink:href="#linear-gradient-4"/>
    <linearGradient id="linear-gradient-21" x1="244.5" y1="67.2" x2="244.5" y2="58.78" gradientTransform="translate(181.51 307.5) rotate(-90)" xlink:href="#linear-gradient-4"/>
    <linearGradient id="linear-gradient-22" x1="244.51" y1="58.78" x2="244.51" y2="43.88" gradientTransform="translate(193.17 295.84) rotate(-90)" xlink:href="#linear-gradient-4"/>
    <linearGradient id="linear-gradient-23" x1="244.51" y1="46.74" x2="244.51" y2="27.96" gradientTransform="matrix(1,0,0,1,0,0)" xlink:href="#linear-gradient-4"/>
    <linearGradient id="linear-gradient-24" x1="230.94" y1="272.03" x2="234.32" y2="272.03" gradientTransform="matrix(1,0,0,1,0,0)" xlink:href="#linear-gradient-4"/>
    <linearGradient id="linear-gradient-25" x1="236.85" y1="272.03" x2="240.22" y2="272.03" gradientTransform="matrix(1,0,0,1,0,0)" xlink:href="#linear-gradient-4"/>
    <linearGradient id="linear-gradient-26" x1="242.47" y1="272.03" x2="245.84" y2="272.03" gradientTransform="matrix(1,0,0,1,0,0)" xlink:href="#linear-gradient-4"/>
    <linearGradient id="linear-gradient-27" x1="162.63" x2="162.63" gradientTransform="translate(-116.31 441.56) rotate(-90)" xlink:href="#linear-gradient-4"/>
    <linearGradient id="linear-gradient-28" x1="162.63" y1="67.2" x2="162.63" y2="58.78" gradientTransform="translate(99.63 225.62) rotate(-90)" xlink:href="#linear-gradient-4"/>
    <linearGradient id="linear-gradient-29" x1="162.63" y1="58.78" x2="162.63" y2="43.88" gradientTransform="translate(111.29 213.96) rotate(-90)" xlink:href="#linear-gradient-4"/>
    <linearGradient id="linear-gradient-30" x1="162.63" y1="46.74" x2="162.63" y2="27.96" gradientTransform="matrix(1,0,0,1,0,0)" xlink:href="#linear-gradient-4"/>
    <linearGradient id="linear-gradient-31" x1="149.06" y1="272.03" x2="152.44" y2="272.03" gradientTransform="matrix(1,0,0,1,0,0)" xlink:href="#linear-gradient-4"/>
    <linearGradient id="linear-gradient-32" x1="154.97" y1="272.03" x2="158.34" y2="272.03" gradientTransform="matrix(1,0,0,1,0,0)" xlink:href="#linear-gradient-4"/>
    <linearGradient id="linear-gradient-33" x1="160.59" y1="272.03" x2="163.96" y2="272.03" gradientTransform="matrix(1,0,0,1,0,0)" xlink:href="#linear-gradient-4"/>
    <linearGradient id="linear-gradient-34" x1="166.49" y1="272.03" x2="169.87" y2="272.03" gradientTransform="matrix(1,0,0,1,0,0)" xlink:href="#linear-gradient-4"/>
    <linearGradient id="linear-gradient-35" x1="171.84" y1="272.03" x2="175.21" y2="272.03" gradientTransform="matrix(1,0,0,1,0,0)" xlink:href="#linear-gradient-4"/>
    <linearGradient id="linear-gradient-36" x1="-23.55" y1="47.97" x2="-15.97" y2="566.79" gradientUnits="userSpaceOnUse">
      <stop offset="0" stop-color="#f29c00"/>
      <stop offset=".1" stop-color="#eb9b05"/>
      <stop offset=".24" stop-color="#da9914"/>
      <stop offset=".41" stop-color="#bd962d"/>
      <stop offset=".58" stop-color="#959250"/>
      <stop offset=".78" stop-color="#628d7d"/>
      <stop offset=".98" stop-color="#2487b2"/>
      <stop offset="1" stop-color="#1c87ba"/>
    </linearGradient>
    <linearGradient id="linear-gradient-37" x1="58.33" y1="47.97" x2="65.91" y2="566.79" xlink:href="#linear-gradient-36"/>
    <linearGradient id="linear-gradient-38" x1="140.21" y1="47.97" x2="147.79" y2="566.79" xlink:href="#linear-gradient-36"/>
    <linearGradient id="linear-gradient-39" x1="222.09" y1="47.97" x2="229.67" y2="566.79" xlink:href="#linear-gradient-36"/>
  </defs>
  <g id="Layer_2-2" data-name="Layer 2">
    <g class="cls-42">
      <g>
        <g>
          <path class="cls-10" d="M-152.51-13v55.43h44.35l.16,1.23c.23,1.81,1.03,3.07,1.95,3.07h.94v6.26c0,3.2,1.27,5.79,2.84,5.79h1.54c-1.14,0-2.07,1.89-2.07,4.21s.93,4.21,2.07,4.21h1.54v425.76h32.38V67.2h1.54c1.14,0,2.07-1.89,2.07-4.21s-.93-4.21-2.07-4.21h1.54c1.57,0,2.84-2.59,2.84-5.79v-6.26h.94c.92,0,1.72-1.26,1.95-3.07l.16-1.23h31.58l.16,1.23c.23,1.81,1.03,3.07,1.95,3.07h.94v6.26c0,3.2,1.27,5.79,2.84,5.79h1.54c-1.14,0-2.07,1.89-2.07,4.21s.93,4.21,2.07,4.21h1.54v425.76H15.06V67.2h1.54c1.14,0,2.07-1.89,2.07-4.21s-.93-4.21-2.07-4.21h1.54c1.57,0,2.84-2.59,2.84-5.79v-6.26h.94c.92,0,1.72-1.26,1.95-3.07l.16-1.23h31.58l.16,1.23c.23,1.81,1.03,3.07,1.95,3.07h.94v6.26c0,3.2,1.27,5.79,2.84,5.79h1.54c-1.14,0-2.07,1.89-2.07,4.21s.93,4.21,2.07,4.21h1.54v425.76h32.38V67.2h1.54c1.14,0,2.07-1.89,2.07-4.21s-.93-4.21-2.07-4.21h1.54c1.57,0,2.84-2.59,2.84-5.79v-6.26h.94c.92,0,1.72-1.26,1.95-3.07l.16-1.23h31.58l.16,1.23c.23,1.81,1.03,3.07,1.95,3.07h.94v6.26c0,3.2,1.27,5.79,2.84,5.79h1.54c-1.14,0-2.07,1.89-2.07,4.21s.93,4.21,2.07,4.21h1.54v425.76h32.38V67.2h1.54c1.14,0,2.07-1.89,2.07-4.21s-.93-4.21-2.07-4.21h1.54c1.57,0,2.84-2.59,2.84-5.79v-6.26h.94c.92,0,1.72-1.26,1.95-3.07l.16-1.23h31.58l.16,1.23c.23,1.81,1.03,3.07,1.95,3.07h.94v6.26c0,3.2,1.27,5.79,2.84,5.79h1.54c-1.14,0-2.07,1.89-2.07,4.21s.93,4.21,2.07,4.21h1.54v425.76h32.38V67.2h1.54c1.14,0,2.07-1.89,2.07-4.21s-.93-4.21-2.07-4.21h1.54c1.57,0,2.84-2.59,2.84-5.79v-6.26h.94c.92,0,1.72-1.26,1.95-3.07l.16-1.23h31.58l.16,1.23c.23,1.81,1.03,3.07,1.95,3.07h.94v6.26c0,3.2,1.27,5.79,2.84,5.79h1.54c-1.14,0-2.07,1.89-2.07,4.21s.93,4.21,2.07,4.21h1.54v425.76h32.38V67.2h1.54c1.14,0,2.07-1.89,2.07-4.21s-.93-4.21-2.07-4.21h1.54c1.57,0,2.84-2.59,2.84-5.79v-6.26h.94c.92,0,1.72-1.26,1.95-3.07l.16-1.23h52.42V-13H-152.51Z"/>
          <g class="cls-41">
            <g>
              <rect class="cls-9" x="-152.51" y="-13" width="556.47" height="55.43"/>
              <rect class="cls-8" x="-152.51" y="3.99" width="556.47" height="21.46"/>
            </g>
            <g>
              <g>
                <rect class="cls-7" x="-215.16" y="262.75" width="428.06" height="32.38" transform="translate(277.8 280.07) rotate(90)"/>
                <rect class="cls-4" x="-5.34" y="43.2" width="8.42" height="39.59" rx="1.8" ry="1.8" transform="translate(61.86 64.13) rotate(90)"/>
                <path class="cls-5" d="M-8.59,29.22H2.83c1.92,0,3.49,1.56,3.49,3.49v37.24c0,1.92-1.56,3.49-3.49,3.49h-11.42V29.22h0Z" transform="translate(50.2 52.47) rotate(90)"/>
                <path class="cls-3" d="M-26.13,43.67l-1.99-15.71H25.85s-1.99,15.71-1.99,15.71c-.23,1.81-1.03,3.07-1.95,3.07H-24.18c-.92,0-1.72-1.26-1.95-3.07Z"/>
              </g>
              <g>
                <rect class="cls-2" x="-3.17" y="67.2" width="3.37" height="409.65"/>
                <rect class="cls-6" x="2.73" y="67.2" width="3.37" height="409.65"/>
                <rect class="cls-11" x="8.08" y="67.2" width="3.37" height="409.65"/>
              </g>
            </g>
            <g>
              <g>
                <rect class="cls-12" x="-133.28" y="262.75" width="428.06" height="32.38" transform="translate(359.68 198.19) rotate(90)"/>
                <rect class="cls-13" x="76.54" y="43.2" width="8.42" height="39.59" rx="1.8" ry="1.8" transform="translate(143.74 -17.75) rotate(90)"/>
                <path class="cls-14" d="M73.29,29.22h11.42c1.92,0,3.49,1.56,3.49,3.49v37.24c0,1.92-1.56,3.49-3.49,3.49h-11.42V29.22h0Z" transform="translate(132.08 -29.41) rotate(90)"/>
                <path class="cls-16" d="M55.75,43.67l-1.99-15.71h53.97s-1.99,15.71-1.99,15.71c-.23,1.81-1.03,3.07-1.95,3.07h-46.09c-.92,0-1.72-1.26-1.95-3.07Z"/>
              </g>
              <g>
                <rect class="cls-27" x="67.18" y="67.2" width="3.37" height="409.65"/>
                <rect class="cls-28" x="73.09" y="67.2" width="3.37" height="409.65"/>
                <rect class="cls-29" x="78.71" y="67.2" width="3.37" height="409.65"/>
                <rect class="cls-30" x="84.61" y="67.2" width="3.37" height="409.65"/>
                <rect class="cls-15" x="89.96" y="67.2" width="3.37" height="409.65"/>
              </g>
            </g>
            <g>
              <g>
                <rect class="cls-18" x="30.48" y="262.75" width="428.06" height="32.38" transform="translate(523.44 34.43) rotate(90)"/>
                <rect class="cls-17" x="240.29" y="43.2" width="8.42" height="39.59" rx="1.8" ry="1.8" transform="translate(307.5 -181.51) rotate(90)"/>
                <path class="cls-19" d="M237.05,29.22h11.42c1.92,0,3.49,1.56,3.49,3.49v37.24c0,1.92-1.56,3.49-3.49,3.49h-11.42V29.22h0Z" transform="translate(295.84 -193.17) rotate(90)"/>
                <path class="cls-20" d="M219.51,43.67l-1.99-15.71h53.97s-1.99,15.71-1.99,15.71c-.23,1.81-1.03,3.07-1.95,3.07h-46.09c-.92,0-1.72-1.26-1.95-3.07Z"/>
              </g>
              <g>
                <rect class="cls-36" x="230.94" y="67.2" width="3.37" height="409.65"/>
                <rect class="cls-22" x="236.85" y="67.2" width="3.37" height="409.65"/>
                <rect class="cls-37" x="242.47" y="67.2" width="3.37" height="409.65"/>
              </g>
            </g>
            <g>
              <g>
                <rect class="cls-35" x="-51.4" y="262.75" width="428.06" height="32.38" transform="translate(441.56 116.31) rotate(90)"/>
                <rect class="cls-21" x="158.41" y="43.2" width="8.42" height="39.59" rx="1.8" ry="1.8" transform="translate(225.62 -99.63) rotate(90)"/>
                <path class="cls-38" d="M155.17,29.22h11.42c1.92,0,3.49,1.56,3.49,3.49v37.24c0,1.92-1.56,3.49-3.49,3.49h-11.42V29.22h0Z" transform="translate(213.96 -111.29) rotate(90)"/>
                <path class="cls-26" d="M137.63,43.67l-1.99-15.71h53.97s-1.99,15.71-1.99,15.71c-.23,1.81-1.03,3.07-1.95,3.07h-46.09c-.92,0-1.72-1.26-1.95-3.07Z"/>
              </g>
              <g>
                <rect class="cls-24" x="149.06" y="67.2" width="3.37" height="409.65"/>
                <rect class="cls-23" x="154.97" y="67.2" width="3.37" height="409.65"/>
                <rect class="cls-25" x="160.59" y="67.2" width="3.37" height="409.65"/>
                <rect class="cls-32" x="166.49" y="67.2" width="3.37" height="409.65"/>
                <rect class="cls-31" x="171.84" y="67.2" width="3.37" height="409.65"/>
              </g>
            </g>
          </g>
        </g>
        <g>
          <path class="cls-33" d="M-10.21,490.6V53.26h-1.54c-1.14,0-2.07-1.94-2.07-4.32s.93-4.32,2.07-4.32h-1.54c-1.57,0-2.84-2.66-2.84-5.94v-6.43h-.94c-.92,0-1.72-1.3-1.95-3.16l-.16-1.27h-31.58l-.16,1.27c-.23,1.86-1.03,3.16-1.95,3.16h-.94v6.43c0,2.31-.64,4.29-1.56,5.28h28.67l.16,1.27c.23,1.86,1.03,3.16,1.95,3.16h.94v6.43c0,3.28,1.27,5.94,2.84,5.94h1.54c-1.14,0-2.07,1.94-2.07,4.33s.93,4.32,2.07,4.32h1.54v437.34H14.66v-16.13H-10.21Z"/>
          <path class="cls-39" d="M71.67,490.6V53.26h-1.54c-1.14,0-2.07-1.94-2.07-4.32s.93-4.32,2.07-4.32h-1.54c-1.57,0-2.84-2.66-2.84-5.94v-6.43h-.94c-.92,0-1.72-1.3-1.95-3.16l-.16-1.27h-31.58l-.16,1.27c-.23,1.86-1.03,3.16-1.95,3.16h-.94v6.43c0,2.31-.64,4.29-1.56,5.28h28.67l.16,1.27c.23,1.86,1.03,3.16,1.95,3.16h.94v6.43c0,3.28,1.27,5.94,2.84,5.94h1.54c-1.14,0-2.07,1.94-2.07,4.33s.93,4.32,2.07,4.32h1.54v437.34h32.38v-16.13h-24.87Z"/>
          <path class="cls-34" d="M153.55,490.6V53.26h-1.54c-1.14,0-2.07-1.94-2.07-4.32s.93-4.32,2.07-4.32h-1.54c-1.57,0-2.84-2.66-2.84-5.94v-6.43h-.94c-.92,0-1.72-1.3-1.95-3.16l-.16-1.27h-31.58l-.16,1.27c-.23,1.86-1.03,3.16-1.95,3.16h-.94v6.43c0,2.31-.64,4.29-1.56,5.28h28.67l.16,1.27c.23,1.86,1.03,3.16,1.95,3.16h.94v6.43c0,3.28,1.27,5.94,2.84,5.94h1.54c-1.14,0-2.07,1.94-2.07,4.33s.93,4.32,2.07,4.32h1.54v437.34h32.38v-16.13h-24.87Z"/>
          <path class="cls-40" d="M235.43,490.6V53.26h-1.54c-1.14,0-2.07-1.94-2.07-4.32s.93-4.32,2.07-4.32h-1.54c-1.57,0-2.84-2.66-2.84-5.94v-6.43h-.94c-.92,0-1.72-1.3-1.95-3.16l-.16-1.27h-31.58l-.16,1.27c-.23,1.86-1.03,3.16-1.95,3.16h-.94v6.43c0,2.31-.64,4.29-1.56,5.28h28.67l.16,1.27c.23,1.86,1.03,3.16,1.95,3.16h.94v6.43c0,3.28,1.27,5.94,2.84,5.94h1.54c-1.14,0-2.07,1.94-2.07,4.33s.93,4.32,2.07,4.32h1.54v437.34h32.38v-16.13h-24.87Z"/>
        </g>
      </g>
    </g>
  </g>
</svg>