<?xml version="1.0" encoding="UTF-8"?>
<svg id="Layer_2" data-name="Layer 2" xmlns="http://www.w3.org/2000/svg" xmlns:xlink="http://www.w3.org/1999/xlink" viewBox="0 0 968.31 61.65">
  <defs>
    <style>
      .cls-1 {
        fill: url(#linear-gradient-8);
      }

      .cls-2 {
        fill: url(#linear-gradient-7);
      }

      .cls-3 {
        fill: url(#linear-gradient-5);
      }

      .cls-4 {
        fill: url(#linear-gradient-6);
      }

      .cls-5 {
        fill: url(#linear-gradient-9);
      }

      .cls-6 {
        fill: url(#linear-gradient-4);
      }

      .cls-7 {
        fill: url(#linear-gradient-3);
      }

      .cls-8 {
        fill: url(#linear-gradient-2);
      }

      .cls-9 {
        fill: url(#linear-gradient);
      }

      .cls-10 {
        fill: url(#linear-gradient-10);
      }

      .cls-11 {
        fill: url(#linear-gradient-11);
      }

      .cls-12 {
        fill: url(#linear-gradient-12);
      }

      .cls-13 {
        fill: url(#linear-gradient-13);
      }

      .cls-14 {
        fill: url(#linear-gradient-14);
      }

      .cls-15 {
        fill: url(#linear-gradient-15);
      }
    </style>
    <linearGradient id="linear-gradient" x1="0" y1="31.23" x2="967.21" y2="31.23" gradientUnits="userSpaceOnUse">
      <stop offset="0" stop-color="#d98c27"/>
      <stop offset=".05" stop-color="#e19828"/>
      <stop offset=".14" stop-color="#eaa529"/>
      <stop offset=".26" stop-color="#f0ad2a"/>
      <stop offset=".47" stop-color="#f2b02b"/>
      <stop offset=".67" stop-color="#f2b22d"/>
      <stop offset=".81" stop-color="#f5b936"/>
      <stop offset=".93" stop-color="#fac546"/>
      <stop offset="1" stop-color="#ffcf53"/>
    </linearGradient>
    <linearGradient id="linear-gradient-2" x1="38.76" y1="47.81" x2="38.76" y2="13.03" gradientUnits="userSpaceOnUse">
      <stop offset="0" stop-color="#ffcf53"/>
      <stop offset="1" stop-color="#ffefb7"/>
    </linearGradient>
    <linearGradient id="linear-gradient-3" x1="119.84" x2="119.84" xlink:href="#linear-gradient-2"/>
    <linearGradient id="linear-gradient-4" x1="200.92" x2="200.92" xlink:href="#linear-gradient-2"/>
    <linearGradient id="linear-gradient-5" x1="282.01" x2="282.01" xlink:href="#linear-gradient-2"/>
    <linearGradient id="linear-gradient-6" x1="363.09" x2="363.09" xlink:href="#linear-gradient-2"/>
    <linearGradient id="linear-gradient-7" x1="444.17" x2="444.17" xlink:href="#linear-gradient-2"/>
    <linearGradient id="linear-gradient-8" x1="525.25" x2="525.25" xlink:href="#linear-gradient-2"/>
    <linearGradient id="linear-gradient-9" x1="606.33" y1="47.81" x2="606.33" xlink:href="#linear-gradient-2"/>
    <linearGradient id="linear-gradient-10" x1="687.41" y1="47.81" x2="687.41" xlink:href="#linear-gradient-2"/>
    <linearGradient id="linear-gradient-11" x1="768.49" y1="47.81" x2="768.49" xlink:href="#linear-gradient-2"/>
    <linearGradient id="linear-gradient-12" x1="849.57" y1="47.81" x2="849.57" xlink:href="#linear-gradient-2"/>
    <linearGradient id="linear-gradient-13" x1="930.65" y1="47.81" x2="930.65" xlink:href="#linear-gradient-2"/>
    <linearGradient id="linear-gradient-14" x1="484.71" y1="5.83" x2="484.71" y2="0" xlink:href="#linear-gradient-2"/>
    <linearGradient id="linear-gradient-15" x1="484.71" y1="60.84" x2="484.71" y2="55.01" xlink:href="#linear-gradient-2"/>
  </defs>
  <g id="Layer_1-2" data-name="Layer 1">
    <rect class="cls-9" y=".81" width="967.21" height="60.84"/>
    <g>
      <g>
        <polygon class="cls-8" points="47.44 36.8 64.84 36.8 64.84 24.23 59.02 24.23 59.02 30.97 53.26 30.97 53.26 18.85 70.6 18.85 70.6 41.98 41.68 41.98 41.68 13.03 1.1 13.03 1.1 47.81 30.1 47.81 30.1 24.04 12.68 24.04 12.68 36.61 18.51 36.61 18.51 29.87 24.27 29.87 24.27 41.98 6.93 41.98 6.93 18.85 35.85 18.85 35.85 47.81 76.43 47.81 76.43 13.03 47.44 13.03 47.44 36.8"/>
        <polygon class="cls-7" points="128.52 36.8 145.92 36.8 145.92 24.23 140.1 24.23 140.1 30.97 134.34 30.97 134.34 18.85 151.68 18.85 151.68 41.98 122.76 41.98 122.76 13.03 82.18 13.03 82.18 47.81 111.18 47.81 111.18 24.04 93.76 24.04 93.76 36.61 99.59 36.61 99.59 29.87 105.35 29.87 105.35 41.98 88.01 41.98 88.01 18.85 116.93 18.85 116.93 47.81 157.51 47.81 157.51 13.03 128.52 13.03 128.52 36.8"/>
        <polygon class="cls-6" points="209.6 36.8 227 36.8 227 24.23 221.18 24.23 221.18 30.97 215.42 30.97 215.42 18.85 232.76 18.85 232.76 41.98 203.84 41.98 203.84 13.03 163.26 13.03 163.26 47.81 192.26 47.81 192.26 24.04 174.85 24.04 174.85 36.61 180.67 36.61 180.67 29.87 186.43 29.87 186.43 41.98 169.09 41.98 169.09 18.85 198.01 18.85 198.01 47.81 238.59 47.81 238.59 13.03 209.6 13.03 209.6 36.8"/>
        <polygon class="cls-3" points="290.68 36.8 308.08 36.8 308.08 24.23 302.26 24.23 302.26 30.97 296.5 30.97 296.5 18.85 313.84 18.85 313.84 41.98 284.92 41.98 284.92 13.03 244.34 13.03 244.34 47.81 273.34 47.81 273.34 24.04 255.93 24.04 255.93 36.61 261.75 36.61 261.75 29.87 267.51 29.87 267.51 41.98 250.17 41.98 250.17 18.85 279.09 18.85 279.09 47.81 319.67 47.81 319.67 13.03 290.68 13.03 290.68 36.8"/>
        <polygon class="cls-4" points="371.76 36.8 389.17 36.8 389.17 24.23 383.34 24.23 383.34 30.97 377.58 30.97 377.58 18.85 394.92 18.85 394.92 41.98 366 41.98 366 13.03 325.42 13.03 325.42 47.81 354.42 47.81 354.42 24.04 337.01 24.04 337.01 36.61 342.83 36.61 342.83 29.87 348.59 29.87 348.59 41.98 331.25 41.98 331.25 18.85 360.17 18.85 360.17 47.81 400.75 47.81 400.75 13.03 371.76 13.03 371.76 36.8"/>
        <polygon class="cls-2" points="452.84 36.8 470.25 36.8 470.25 24.23 464.42 24.23 464.42 30.97 458.67 30.97 458.67 18.85 476 18.85 476 41.98 447.08 41.98 447.08 13.03 406.5 13.03 406.5 47.81 435.5 47.81 435.5 24.04 418.09 24.04 418.09 36.61 423.91 36.61 423.91 29.87 429.67 29.87 429.67 41.98 412.33 41.98 412.33 18.85 441.25 18.85 441.25 47.81 481.83 47.81 481.83 13.03 452.84 13.03 452.84 36.8"/>
        <polygon class="cls-1" points="533.92 36.8 551.33 36.8 551.33 24.23 545.5 24.23 545.5 30.97 539.75 30.97 539.75 18.85 557.08 18.85 557.08 41.98 528.16 41.98 528.16 13.03 487.58 13.03 487.58 47.81 516.58 47.81 516.58 24.04 499.17 24.04 499.17 36.61 504.99 36.61 504.99 29.87 510.75 29.87 510.75 41.98 493.41 41.98 493.41 18.85 522.33 18.85 522.33 47.81 562.91 47.81 562.91 13.03 533.92 13.03 533.92 36.8"/>
        <polygon class="cls-5" points="615 36.8 632.41 36.8 632.41 24.23 626.58 24.23 626.58 30.97 620.83 30.97 620.83 18.85 638.16 18.85 638.16 41.98 609.24 41.98 609.24 13.03 568.67 13.03 568.67 47.81 597.66 47.81 597.66 24.04 580.25 24.04 580.25 36.61 586.07 36.61 586.07 29.87 591.83 29.87 591.83 41.98 574.49 41.98 574.49 18.85 603.41 18.85 603.41 47.81 643.99 47.81 643.99 13.03 615 13.03 615 36.8"/>
        <polygon class="cls-10" points="696.08 36.8 713.49 36.8 713.49 24.23 707.66 24.23 707.66 30.97 701.91 30.97 701.91 18.85 719.24 18.85 719.24 41.98 690.32 41.98 690.32 13.03 649.74 13.03 649.74 47.81 678.74 47.81 678.74 24.04 661.33 24.04 661.33 36.61 667.16 36.61 667.16 29.87 672.91 29.87 672.91 41.98 655.57 41.98 655.57 18.85 684.5 18.85 684.5 47.81 725.07 47.81 725.07 13.03 696.08 13.03 696.08 36.8"/>
        <polygon class="cls-11" points="777.16 36.8 794.57 36.8 794.57 24.23 788.74 24.23 788.74 30.97 782.99 30.97 782.99 18.85 800.32 18.85 800.32 41.98 771.4 41.98 771.4 13.03 730.83 13.03 730.83 47.81 759.82 47.81 759.82 24.04 742.41 24.04 742.41 36.61 748.24 36.61 748.24 29.87 753.99 29.87 753.99 41.98 736.65 41.98 736.65 18.85 765.58 18.85 765.58 47.81 806.15 47.81 806.15 13.03 777.16 13.03 777.16 36.8"/>
        <polygon class="cls-12" points="858.24 36.8 875.65 36.8 875.65 24.23 869.82 24.23 869.82 30.97 864.07 30.97 864.07 18.85 881.4 18.85 881.4 41.98 852.48 41.98 852.48 13.03 811.91 13.03 811.91 47.81 840.9 47.81 840.9 24.04 823.49 24.04 823.49 36.61 829.32 36.61 829.32 29.87 835.07 29.87 835.07 41.98 817.73 41.98 817.73 18.85 846.66 18.85 846.66 47.81 887.23 47.81 887.23 13.03 858.24 13.03 858.24 36.8"/>
        <polygon class="cls-13" points="939.32 36.8 956.73 36.8 956.73 24.23 950.9 24.23 950.9 30.97 945.15 30.97 945.15 18.85 962.48 18.85 962.48 41.98 933.56 41.98 933.56 13.03 892.99 13.03 892.99 47.81 921.98 47.81 921.98 24.04 904.57 24.04 904.57 36.61 910.4 36.61 910.4 29.87 916.15 29.87 916.15 41.98 898.81 41.98 898.81 18.85 927.74 18.85 927.74 47.81 968.31 47.81 968.31 13.03 939.32 13.03 939.32 36.8"/>
      </g>
      <rect class="cls-14" x="1.1" width="967.21" height="5.83"/>
      <rect class="cls-15" x="1.1" y="55.01" width="967.21" height="5.83"/>
    </g>
  </g>
</svg>