<svg width="567" height="112" viewBox="0 0 567 112" fill="none" xmlns="http://www.w3.org/2000/svg">
<g clip-path="url(#clip0_1030_13)">
<path d="M98.1196 62.3811C98.1196 62.3811 51.1598 70.3562 47.2645 83.4287C43.3692 96.5012 42.5036 26.2108 55.4795 13.3546C68.4555 0.48908 108.191 -4.25086 108.673 4.3638C108.948 9.17898 98.1112 62.3811 98.1112 62.3811H98.1196Z" fill="url(#paint0_linear_1030_13)"/>
<path d="M99.2012 52.6849C99.2012 52.6849 110.071 9.75262 108.673 4.36375C108.673 4.36375 106.501 14.8311 99.6673 13.9095C92.8339 12.9878 87.8399 11.5677 85.5261 17.5867C85.5261 17.5867 81.0315 31.4492 99.2012 52.6849Z" fill="url(#paint1_linear_1030_13)"/>
<path d="M54.4472 15.3766C54.4472 15.3766 45.3082 20.2482 45.0752 67.61C45.0086 81.1716 47.2559 83.4193 47.2559 83.4193C47.2559 83.4193 89.821 64.356 87.4738 52.9858C85.135 41.6062 62.6456 44.8602 55.8455 31.863C49.0537 18.8657 54.4388 15.3766 54.4388 15.3766H54.4472Z" fill="url(#paint2_linear_1030_13)"/>
<path d="M76.9365 44.8602C76.9365 44.8602 87.2407 48.3399 83.4953 55.7696C79.7498 63.1993 40.9302 69.5756 34.7709 60.4155C31.4916 55.5439 33.5974 52.7507 33.5974 52.7507C33.5974 52.7507 28.6783 59.2493 29.1444 68.5411C29.6105 77.8235 33.5974 87.341 31.7246 94.0747C29.8519 100.808 29.3858 101.269 33.8304 106.376C38.275 111.483 69.3208 115.038 79.2754 108.229C86.0671 103.583 76.9365 100.338 77.8687 91.5167C78.801 82.6951 89.3465 62.0331 87.4738 52.9764C85.601 43.9197 76.9282 44.8508 76.9282 44.8508L76.9365 44.8602Z" fill="url(#paint3_linear_1030_13)"/>
<path d="M459.64 62.3811C459.64 62.3811 506.6 70.3562 510.495 83.4287C514.39 96.5011 515.256 26.2108 502.28 13.3546C489.304 0.498442 449.569 -4.2415 449.086 4.37316C448.812 9.18834 459.648 62.3905 459.648 62.3905L459.64 62.3811Z" fill="url(#paint4_linear_1030_13)"/>
<path d="M458.558 52.6849C458.558 52.6849 447.688 9.75262 449.086 4.36375C449.086 4.36375 451.258 14.8311 458.092 13.9095C464.925 12.9878 469.919 11.5677 472.233 17.5867C472.233 17.5867 476.728 31.4492 458.558 52.6849Z" fill="url(#paint5_linear_1030_13)"/>
<path d="M466.823 55.3088C476.969 18.4425 472.233 17.5773 472.233 17.5773C473.482 27.6779 456.003 28.0917 453.298 26.0321C450.593 23.9725 442.194 22.0915 442.194 22.0915H279.217H115.565C115.565 22.0915 107.167 23.9725 104.462 26.0321C101.757 28.0917 84.2779 27.6779 85.5264 17.5773C85.5264 17.5773 80.7904 18.4425 90.9365 55.3088C95.3062 71.1838 85.7344 82.6293 92.6011 95.7205C95.3062 100.874 115.565 99.2097 115.565 99.2097H278.543H442.194C442.194 99.2097 462.453 100.874 465.158 95.7205C472.025 82.6293 462.453 71.1838 466.823 55.3088Z" fill="url(#paint6_radial_1030_13)"/>
<path d="M503.304 15.3766C503.304 15.3766 512.443 20.2482 512.676 67.61C512.742 81.1716 510.495 83.4193 510.495 83.4193C510.495 83.4193 467.93 64.356 470.277 52.9858C472.616 41.6062 495.105 44.8602 501.906 31.863C508.697 18.8657 503.312 15.3766 503.312 15.3766H503.304Z" fill="url(#paint7_linear_1030_13)"/>
<path d="M480.814 44.8602C480.814 44.8602 470.51 48.3399 474.256 55.7696C478.001 63.1993 516.821 69.5756 522.98 60.4155C526.259 55.5439 524.153 52.7507 524.153 52.7507C524.153 52.7507 529.072 59.2493 528.606 68.5411C528.14 77.8235 524.153 87.341 526.026 94.0747C527.899 100.808 528.365 101.269 523.92 106.376C519.467 111.483 488.43 115.038 478.475 108.229C471.684 103.583 480.814 100.338 479.882 91.5167C478.95 82.6951 468.404 62.0331 470.277 52.9764C472.15 43.9197 480.823 44.8508 480.823 44.8508L480.814 44.8602Z" fill="url(#paint8_linear_1030_13)"/>
</g>
<path d="M209.073 41.4146C208.873 41.4146 208.69 41.5146 208.523 41.7146C208.39 41.9146 208.323 42.1479 208.323 42.4146V81.3146C208.323 83.3146 208.123 84.9812 207.723 86.3146C207.323 87.6479 206.79 88.7146 206.123 89.5146C205.456 90.3146 204.656 90.8812 203.723 91.2146C202.823 91.5812 201.856 91.7646 200.823 91.7646C200.223 91.7646 199.556 91.6979 198.823 91.5646C198.123 91.4312 197.373 91.2479 196.573 91.0146V88.8646C197.54 89.1646 198.323 89.3812 198.923 89.5146C199.556 89.6479 200.056 89.7146 200.423 89.7146C201.356 89.7146 201.973 89.4146 202.273 88.8146C202.606 88.2146 202.773 87.5312 202.773 86.7646C202.773 86.1646 202.706 85.5479 202.573 84.9146C202.473 84.2812 202.34 83.7146 202.173 83.2146C202.006 82.5812 201.806 81.9812 201.573 81.4146V42.4146C201.573 42.1479 201.406 41.9146 201.073 41.7146C200.74 41.5146 200.34 41.4146 199.873 41.4146V39.1646H209.973V41.4146H209.073ZM240.131 78.7646C240.264 79.0979 240.614 79.3479 241.181 79.5146C241.748 79.6812 242.281 79.7646 242.781 79.7646V82.0146H231.581V79.7646C232.014 79.7646 232.448 79.7312 232.881 79.6646C233.314 79.5979 233.531 79.4979 233.531 79.3646L231.081 70.7646H219.531L217.681 77.2646C217.648 77.3312 217.631 77.4479 217.631 77.6146C217.631 77.8479 217.681 78.0979 217.781 78.3646C217.914 78.5979 218.114 78.8312 218.381 79.0646C218.681 79.2646 219.081 79.4312 219.581 79.5646C220.081 79.6979 220.731 79.7646 221.531 79.7646V82.0146H210.681V79.7646C211.648 79.7646 212.481 79.5479 213.181 79.1146C213.914 78.6479 214.514 77.8479 214.981 76.7146H214.931L216.681 70.7646H213.881V68.5146H217.331L225.731 39.1646H228.131L240.131 78.8146V78.7646ZM230.431 68.5146L225.181 51.2146L220.181 68.5146H230.431ZM257.586 39.1646C259.553 39.1646 261.386 39.5312 263.086 40.2646C264.786 40.9979 266.269 41.9979 267.536 43.2646C268.836 44.5312 269.853 46.0146 270.586 47.7146C271.319 49.3812 271.686 51.1812 271.686 53.1146V68.0646C271.686 69.9979 271.319 71.8146 270.586 73.5146C269.853 75.1812 268.836 76.6479 267.536 77.9146C266.269 79.1812 264.786 80.1812 263.086 80.9146C261.386 81.6479 259.553 82.0146 257.586 82.0146H243.236V79.7646C243.703 79.7646 244.103 79.6812 244.436 79.5146C244.769 79.3146 244.936 79.0812 244.936 78.8146V42.4146C244.936 42.1479 244.769 41.9312 244.436 41.7646C244.103 41.5646 243.703 41.4646 243.236 41.4646V39.2146L257.586 39.1646ZM264.636 52.3146C264.636 50.8146 264.353 49.4146 263.786 48.1146C263.219 46.7812 262.453 45.6312 261.486 44.6646C260.519 43.6646 259.386 42.8812 258.086 42.3146C256.786 41.7479 255.403 41.4646 253.936 41.4646H252.436C252.236 41.4646 252.053 41.5646 251.886 41.7646C251.753 41.9312 251.686 42.1479 251.686 42.4146V78.8146C251.686 79.0812 251.753 79.3146 251.886 79.5146C252.053 79.6812 252.236 79.7646 252.436 79.7646H254.086C255.486 79.6979 256.803 79.3646 258.036 78.7646C259.303 78.1312 260.419 77.3312 261.386 76.3646C262.353 75.3646 263.119 74.2312 263.686 72.9646C264.286 71.6646 264.603 70.2979 264.636 68.8646V52.3146ZM318.067 39.1646V41.4146C317.1 41.4146 316.217 41.6146 315.417 42.0146C314.65 42.4146 314.1 43.2479 313.767 44.5146C312.867 48.1146 312.033 51.4146 311.267 54.4146C310.533 57.4146 309.8 60.3646 309.067 63.2646C308.367 66.1646 307.633 69.1146 306.867 72.1146C306.133 75.1146 305.317 78.4146 304.417 82.0146H301.967L293.417 51.8646L285.867 82.0146H283.417L272.167 42.3646V42.4146C272.067 42.1146 271.733 41.8812 271.167 41.7146C270.633 41.5146 270.133 41.4146 269.667 41.4146V39.1646H279.867V41.4146C279.5 41.4146 279.167 41.4646 278.867 41.5646C278.6 41.6646 278.467 41.7979 278.467 41.9646C278.467 42.0646 278.483 42.1479 278.517 42.2146L278.467 42.1646L286.217 69.3146L291.867 46.4646L290.717 42.3646V42.4146C290.583 42.1146 290.25 41.8812 289.717 41.7146C289.217 41.5146 288.717 41.4146 288.217 41.4146V39.1646H298.417V41.4146C298.15 41.4146 297.85 41.4479 297.517 41.5146C297.183 41.5812 297.017 41.7979 297.017 42.1646L304.767 69.3146L311.117 43.6146C311.183 43.4146 311.217 43.2479 311.217 43.1146C311.217 42.7479 311.033 42.3812 310.667 42.0146C310.3 41.6479 309.633 41.4479 308.667 41.4146L307.567 41.4646V39.1646H318.067ZM339.545 78.7646C339.679 79.0979 340.029 79.3479 340.595 79.5146C341.162 79.6812 341.695 79.7646 342.195 79.7646V82.0146H330.995V79.7646C331.429 79.7646 331.862 79.7312 332.295 79.6646C332.729 79.5979 332.945 79.4979 332.945 79.3646L330.495 70.7646H318.945L317.095 77.2646C317.062 77.3312 317.045 77.4479 317.045 77.6146C317.045 77.8479 317.095 78.0979 317.195 78.3646C317.329 78.5979 317.529 78.8312 317.795 79.0646C318.095 79.2646 318.495 79.4312 318.995 79.5646C319.495 79.6979 320.145 79.7646 320.945 79.7646V82.0146H310.095V79.7646C311.062 79.7646 311.895 79.5479 312.595 79.1146C313.329 78.6479 313.929 77.8479 314.395 76.7146H314.345L316.095 70.7646H313.295V68.5146H316.745L325.145 39.1646H327.545L339.545 78.8146V78.7646ZM329.845 68.5146L324.595 51.2146L319.595 68.5146H329.845ZM366.682 70.7146V82.0146H343.332V79.7646C343.799 79.7646 344.199 79.6812 344.532 79.5146C344.866 79.3146 345.032 79.0812 345.032 78.8146V42.4146C345.032 42.1479 344.866 41.9312 344.532 41.7646C344.199 41.5646 343.799 41.4646 343.332 41.4646V39.2146H353.432V41.4646C352.966 41.4646 352.566 41.5646 352.232 41.7646C351.932 41.9312 351.782 42.1479 351.782 42.4146V78.8146C351.782 79.0812 351.849 79.3146 351.982 79.5146C352.149 79.6812 352.332 79.7646 352.532 79.7646H358.782C359.249 79.7646 359.666 79.6312 360.032 79.3646C360.432 79.0979 360.799 78.7646 361.132 78.3646C361.466 77.9312 361.766 77.4479 362.032 76.9146C362.299 76.3479 362.549 75.7812 362.782 75.2146C363.316 73.9146 363.766 72.4146 364.132 70.7146H366.682Z" fill="url(#paint9_linear_1030_13)"/>
<defs>
<linearGradient id="paint0_linear_1030_13" x1="44.7259" y1="42.5185" x2="108.682" y2="42.5185" gradientUnits="userSpaceOnUse">
<stop stop-color="#FDF7BF"/>
<stop offset="1" stop-color="#FFCB42"/>
</linearGradient>
<linearGradient id="paint1_linear_1030_13" x1="85.035" y1="28.5243" x2="108.798" y2="28.5243" gradientUnits="userSpaceOnUse">
<stop stop-color="#F7901E"/>
<stop offset="1" stop-color="#FFCB42"/>
</linearGradient>
<linearGradient id="paint2_linear_1030_13" x1="45.0752" y1="49.4026" x2="87.5737" y2="49.4026" gradientUnits="userSpaceOnUse">
<stop stop-color="#FFCB42"/>
<stop offset="1" stop-color="#F7901E"/>
</linearGradient>
<linearGradient id="paint3_linear_1030_13" x1="29.1195" y1="78.416" x2="87.7068" y2="78.416" gradientUnits="userSpaceOnUse">
<stop stop-color="#FDF7BF"/>
<stop offset="1" stop-color="#FFCB42"/>
</linearGradient>
<linearGradient id="paint4_linear_1030_13" x1="513.034" y1="42.5184" x2="449.078" y2="42.5184" gradientUnits="userSpaceOnUse">
<stop stop-color="#FDF7BF"/>
<stop offset="1" stop-color="#FFCB42"/>
</linearGradient>
<linearGradient id="paint5_linear_1030_13" x1="472.724" y1="28.5243" x2="448.961" y2="28.5243" gradientUnits="userSpaceOnUse">
<stop stop-color="#F7901E"/>
<stop offset="1" stop-color="#FFCB42"/>
</linearGradient>
<radialGradient id="paint6_radial_1030_13" cx="0" cy="0" r="1" gradientUnits="userSpaceOnUse" gradientTransform="translate(278.876 57.9929) scale(242.856 702.487)">
<stop stop-color="#FDF7BF"/>
<stop offset="0.5" stop-color="#FFCB42"/>
<stop offset="1" stop-color="#F7901E"/>
</radialGradient>
<linearGradient id="paint7_linear_1030_13" x1="512.676" y1="49.4026" x2="470.186" y2="49.4026" gradientUnits="userSpaceOnUse">
<stop stop-color="#FFCB42"/>
<stop offset="1" stop-color="#F7901E"/>
</linearGradient>
<linearGradient id="paint8_linear_1030_13" x1="528.64" y1="78.416" x2="470.052" y2="78.416" gradientUnits="userSpaceOnUse">
<stop stop-color="#FDF7BF"/>
<stop offset="1" stop-color="#FFCB42"/>
</linearGradient>
<linearGradient id="paint9_linear_1030_13" x1="283.786" y1="28.0828" x2="283.315" y2="85.8329" gradientUnits="userSpaceOnUse">
<stop stop-color="#F5AC01"/>
<stop offset="1" stop-color="#C03A00"/>
</linearGradient>
<clipPath id="clip0_1030_13">
<rect width="499.52" height="112" fill="white" transform="translate(29.1196)"/>
</clipPath>
</defs>
</svg>
