<svg width="709" height="178" viewBox="0 0 709 178" fill="none" xmlns="http://www.w3.org/2000/svg">
<path d="M194.124 64.73C203.504 64.73 211.204 73.48 211.204 82.86V84.33C211.204 93.78 203.574 101.41 194.124 101.41H182.574L182.504 121.22C182.574 122.27 183.624 123.18 184.884 123.18V125H172.424V123.18C173.684 123.18 174.804 122.27 174.804 121.22L174.874 101.41H172.494V99.59H174.874L174.804 68.72C174.804 67.53 173.684 66.55 172.424 66.55V64.73H194.124ZM202.734 84.4V82.86C202.734 74.46 195.874 66.55 187.474 66.55H184.604C183.484 66.55 182.504 67.6 182.504 68.72L182.574 99.59H187.544C195.804 99.59 202.594 92.66 202.734 84.4ZM255.816 119.54L257.216 120.59C257.216 120.59 254.626 126.26 247.696 126.26C242.586 126.26 241.746 122.62 240.976 119.33C240.486 117.16 239.996 114.99 239.576 112.75C238.666 108.2 237.406 102.11 236.496 98.75C235.446 95.25 231.036 94.13 226.276 94.13H222.356V121.08C222.356 122.27 223.406 123.18 224.736 123.18V125H212.276V123.18C213.536 123.18 214.656 122.27 214.656 121.08V94.13H212.276V92.38H214.656V68.65C214.656 67.46 213.536 66.55 212.276 66.55V64.73H232.646C240.766 64.73 247.346 71.31 247.346 79.43C247.346 85.73 243.356 91.19 237.686 93.22C243.076 95.46 244.476 101.69 245.946 108.41C246.156 109.53 246.436 110.72 246.716 111.91C247.066 113.45 247.346 114.85 247.626 116.11C248.606 120.66 249.166 122.69 251.336 122.76H251.406C253.786 122.69 255.816 119.54 255.816 119.54ZM238.946 79.43C238.946 72.29 233.136 66.55 226.066 66.55H224.456C223.336 66.55 222.356 67.53 222.356 68.65V92.31H226.066C233.136 92.31 238.946 86.57 238.946 79.43ZM296.231 121.29C296.651 122.48 298.681 123.18 300.011 123.18V125H285.941V123.18C287.131 123.18 288.741 122.76 288.741 121.92C288.741 121.78 288.741 121.71 288.671 121.57L285.031 108.76H266.691L263.821 118.7C263.821 118.91 263.751 119.19 263.751 119.4C263.751 120.94 264.801 123.18 269.421 123.18V125H255.771V123.18C258.431 123.18 260.461 121.92 261.931 118.28L264.661 108.76H260.391V106.94H265.151L277.331 64.73H279.151L296.231 121.29ZM267.181 106.94H284.471L275.581 77.89L267.181 106.94ZM318.027 99.59V101.41H303.117V99.59H318.027ZM344.221 63.54C356.261 63.54 365.991 77.54 365.991 94.9C365.991 112.19 356.261 126.26 344.221 126.26C332.251 126.26 322.521 112.19 322.521 94.9C322.521 77.54 332.251 63.54 344.221 63.54ZM347.371 123.81C356.261 123.81 358.081 107.71 358.081 101.48C358.081 98.82 357.871 95.88 357.521 93.01C355.211 78.03 348.001 65.99 341.001 65.99C332.111 65.99 330.291 82.09 330.291 88.32C330.291 90.98 330.501 93.85 330.921 96.79C333.161 111.77 340.371 123.81 347.371 123.81ZM418.039 64.73H431.129V66.55C428.469 66.55 426.089 67.39 425.039 71.52C419.859 92.31 416.849 104.21 411.669 125H409.849L396.549 78.38L384.929 125H383.109L367.009 68.37C366.589 67.25 364.769 66.55 363.439 66.55V64.73H376.109V66.55C374.989 66.55 374.079 67.11 374.079 68.02C374.079 68.16 374.149 68.37 374.149 68.51L386.329 111.28L395.499 74.53L393.749 68.44C393.259 67.25 391.509 66.55 390.179 66.55V64.73H402.919V66.55C401.799 66.55 400.819 67.11 400.819 67.95C400.819 68.16 400.819 68.3 400.889 68.51L413.069 111.28L423.219 70.54C423.289 70.26 423.289 69.98 423.289 69.63C423.289 68.23 422.239 66.55 418.599 66.55H418.039V64.73ZM433.35 64.73H464.15V77.19H462.47C462.47 77.19 459.81 66.55 453.86 66.55H445.53C444.34 66.55 443.43 67.46 443.43 68.65V92.38H448.05C449.94 92.38 455.89 91.96 456.03 86.08V85.38H457.64V101.13H456.03V100.43C455.89 94.55 449.94 94.2 448.05 94.13H443.43V121.08C443.43 122.27 444.34 123.18 445.53 123.18H454.56C460.51 123.18 463.1 112.54 463.1 112.54H464.85V125H433.35V123.18C434.61 123.18 435.73 122.27 435.73 121.08V94.13H433.35V92.38H435.73V68.65C435.73 67.46 434.61 66.55 433.35 66.55V64.73ZM466.778 64.73H497.578V77.19H495.898C495.898 77.19 493.238 66.55 487.288 66.55H478.958C477.768 66.55 476.858 67.46 476.858 68.65V92.38H481.478C483.368 92.38 489.318 91.96 489.458 86.08V85.38H491.068V101.13H489.458V100.43C489.318 94.55 483.368 94.2 481.478 94.13H476.858V121.08C476.858 122.27 477.768 123.18 478.958 123.18H487.988C493.938 123.18 496.528 112.54 496.528 112.54H498.278V125H466.778V123.18C468.038 123.18 469.158 122.27 469.158 121.08V94.13H466.778V92.38H469.158V68.65C469.158 67.46 468.038 66.55 466.778 66.55V64.73ZM535.625 121.57C536.115 122.62 537.655 123.18 538.845 123.18V125H526.035V123.18C527.015 123.18 527.785 122.83 527.785 122.27C527.785 122.13 527.715 121.99 527.715 121.85L517.775 96.93C516.865 94.83 513.575 94.13 512.665 94.13H510.285V121.08C510.285 122.27 511.335 123.18 512.665 123.18V125H500.205V123.18C501.465 123.18 502.585 122.27 502.585 121.08V94.13H500.205V92.38H502.585V68.65C502.585 67.46 501.465 66.55 500.205 66.55V64.73H512.665V66.55C511.335 66.55 510.285 67.46 510.285 68.65V92.38H512.945C514.135 92.38 517.775 91.96 519.385 87.97C520.995 84.26 522.675 80.2 524.355 76.28C525.195 74.39 525.965 72.5 526.735 70.68C527.015 70.05 527.295 69.28 527.295 68.58C527.295 67.53 526.455 66.55 523.375 66.55V64.73H536.185V66.55C532.965 66.55 530.165 67.6 528.485 71.52L521.415 88.18L535.625 121.57Z" fill="url(#paint0_linear_189_5515)"/>
<g clip-path="url(#clip0_189_5515)">
<path d="M354.362 31.7715C352.423 31.7715 350.908 33.1007 349.849 34.6245C349.849 34.6245 345.598 25.9035 345.598 22.0942C345.598 13.6164 349.116 5.88421 354.362 0" fill="url(#paint1_linear_189_5515)"/>
<path d="M354.362 31.7715C356.3 31.7715 357.815 33.1007 358.874 34.6245C358.874 34.6245 363.125 25.9035 363.125 22.0942C363.125 13.6164 359.607 5.88421 354.362 0" fill="url(#paint2_linear_189_5515)"/>
<path d="M354.362 42C356.305 42 357.88 40.4324 357.88 38.4987C357.88 36.5649 356.305 34.9973 354.362 34.9973C352.418 34.9973 350.843 36.5649 350.843 38.4987C350.843 40.4324 352.418 42 354.362 42Z" fill="url(#paint3_linear_189_5515)"/>
<path d="M349.312 35.5322C347.976 36.9263 346.07 39.2605 346.836 41.3516C346.836 41.3516 333.804 39.0822 331.018 36.4562C324.861 30.6044 321.668 22.7426 321 14.8969" fill="url(#paint4_linear_189_5515)"/>
<path d="M344.115 36.8128C345.451 35.4187 347.455 35.2404 349.312 35.5322C349.312 35.5322 345.891 26.4546 343.122 23.8286C336.948 17.9768 328.901 15.1887 321 14.9131" fill="url(#paint5_linear_189_5515)"/>
<path d="M359.688 35.5322C361.024 36.9263 362.93 39.2605 362.164 41.3516C362.164 41.3516 375.196 39.0822 377.982 36.4562C384.156 30.6044 387.348 22.7426 388.016 14.8969" fill="url(#paint6_linear_189_5515)"/>
<path d="M364.885 36.8128C363.549 35.4187 361.545 35.2404 359.688 35.5322C359.688 35.5322 363.109 26.4546 365.878 23.8286C372.052 17.9768 380.099 15.1887 388 14.9131" fill="url(#paint7_linear_189_5515)"/>
</g>
<defs>
<linearGradient id="paint0_linear_189_5515" x1="354.5" y1="19" x2="354.5" y2="177.754" gradientUnits="userSpaceOnUse">
<stop stop-color="#3F61AD"/>
<stop offset="1" stop-color="#75ABDC"/>
</linearGradient>
<linearGradient id="paint1_linear_189_5515" x1="344.751" y1="31.7067" x2="360.84" y2="3.72463" gradientUnits="userSpaceOnUse">
<stop stop-color="#F2A028"/>
<stop offset="0.4" stop-color="#F4B62A"/>
<stop offset="0.99" stop-color="#F9DE2F"/>
</linearGradient>
<linearGradient id="paint2_linear_189_5515" x1="349.654" y1="29.3238" x2="363.495" y2="5.24173" gradientUnits="userSpaceOnUse">
<stop stop-color="#F2A028"/>
<stop offset="0.4" stop-color="#F4B62A"/>
<stop offset="0.99" stop-color="#F9DE2F"/>
</linearGradient>
<linearGradient id="paint3_linear_189_5515" x1="354.362" y1="42" x2="354.362" y2="34.9973" gradientUnits="userSpaceOnUse">
<stop stop-color="#F2A028"/>
<stop offset="0.4" stop-color="#F4B62A"/>
<stop offset="0.99" stop-color="#F9DE2F"/>
</linearGradient>
<linearGradient id="paint4_linear_189_5515" x1="335.156" y1="41.3516" x2="335.156" y2="14.8969" gradientUnits="userSpaceOnUse">
<stop stop-color="#F2A028"/>
<stop offset="0.4" stop-color="#F4B62A"/>
<stop offset="0.99" stop-color="#F9DE2F"/>
</linearGradient>
<linearGradient id="paint5_linear_189_5515" x1="332.354" y1="30.0532" x2="338.143" y2="19.9622" gradientUnits="userSpaceOnUse">
<stop stop-color="#F2A028"/>
<stop offset="0.4" stop-color="#F4B62A"/>
<stop offset="0.99" stop-color="#F9DE2F"/>
</linearGradient>
<linearGradient id="paint6_linear_189_5515" x1="373.844" y1="41.3516" x2="373.844" y2="14.8969" gradientUnits="userSpaceOnUse">
<stop stop-color="#F2A028"/>
<stop offset="0.4" stop-color="#F4B62A"/>
<stop offset="0.99" stop-color="#F9DE2F"/>
</linearGradient>
<linearGradient id="paint7_linear_189_5515" x1="376.646" y1="30.0532" x2="370.857" y2="19.9622" gradientUnits="userSpaceOnUse">
<stop stop-color="#F2A028"/>
<stop offset="0.4" stop-color="#F4B62A"/>
<stop offset="0.99" stop-color="#F9DE2F"/>
</linearGradient>
<clipPath id="clip0_189_5515">
<rect width="67" height="42" fill="white" transform="translate(321)"/>
</clipPath>
</defs>
</svg>
