<svg width="568" height="112" viewBox="0 0 568 112" fill="none" xmlns="http://www.w3.org/2000/svg">
<g clip-path="url(#clip0_189_3895)">
<path d="M98.8293 62.3811C98.8293 62.3811 51.8695 70.3562 47.9742 83.4287C44.0789 96.5012 43.2133 26.2108 56.1893 13.3546C69.1652 0.48908 108.9 -4.25086 109.383 4.3638C109.658 9.17898 98.821 62.3811 98.821 62.3811H98.8293Z" fill="url(#paint0_linear_189_3895)"/>
<path d="M99.9114 52.6849C99.9114 52.6849 110.782 9.75262 109.383 4.36375C109.383 4.36375 107.211 14.8311 100.377 13.9095C93.5441 12.9878 88.5501 11.5677 86.2363 17.5867C86.2363 17.5867 81.7417 31.4492 99.9114 52.6849Z" fill="url(#paint1_linear_189_3895)"/>
<path d="M55.1571 15.3766C55.1571 15.3766 46.0182 20.2482 45.7851 67.61C45.7186 81.1716 47.9658 83.4193 47.9658 83.4193C47.9658 83.4193 90.5309 64.356 88.1838 52.9858C85.845 41.6062 63.3555 44.8602 56.5554 31.863C49.7637 18.8657 55.1488 15.3766 55.1488 15.3766H55.1571Z" fill="url(#paint2_linear_189_3895)"/>
<path d="M77.6465 44.8602C77.6465 44.8602 87.9507 48.3399 84.2052 55.7696C80.4598 63.1993 41.6401 69.5756 35.4809 60.4155C32.2015 55.5439 34.3073 52.7507 34.3073 52.7507C34.3073 52.7507 29.3883 59.2493 29.8544 68.5411C30.3205 77.8235 34.3073 87.341 32.4346 94.0747C30.5619 100.808 30.0958 101.269 34.5404 106.376C38.985 111.483 70.0307 115.038 79.9853 108.229C86.7771 103.583 77.6465 100.338 78.5787 91.5167C79.5109 82.6951 90.0565 62.0331 88.1837 52.9764C86.311 43.9197 77.6382 44.8508 77.6382 44.8508L77.6465 44.8602Z" fill="url(#paint3_linear_189_3895)"/>
<path d="M460.35 62.3811C460.35 62.3811 507.31 70.3562 511.205 83.4287C515.1 96.5011 515.966 26.2108 502.99 13.3546C490.014 0.498442 450.279 -4.2415 449.796 4.37316C449.521 9.18834 460.358 62.3905 460.358 62.3905L460.35 62.3811Z" fill="url(#paint4_linear_189_3895)"/>
<path d="M459.268 52.6849C459.268 52.6849 448.398 9.75262 449.796 4.36375C449.796 4.36375 451.968 14.8311 458.802 13.9095C465.635 12.9878 470.629 11.5677 472.943 17.5867C472.943 17.5867 477.438 31.4492 459.268 52.6849Z" fill="url(#paint5_linear_189_3895)"/>
<path d="M467.533 55.3088C477.679 18.4425 472.943 17.5773 472.943 17.5773C474.191 27.6779 456.713 28.0917 454.008 26.0321C451.303 23.9725 442.904 22.0915 442.904 22.0915H279.927H116.275C116.275 22.0915 107.877 23.9725 105.172 26.0321C102.467 28.0917 84.9878 27.6779 86.2363 17.5773C86.2363 17.5773 81.5004 18.4425 91.6464 55.3088C96.0162 71.1838 86.4444 82.6293 93.3111 95.7206C96.0162 100.874 116.275 99.2097 116.275 99.2097H279.253H442.904C442.904 99.2097 463.163 100.874 465.868 95.7206C472.735 82.6293 463.163 71.1838 467.533 55.3088Z" fill="url(#paint6_radial_189_3895)"/>
<path d="M504.014 15.3766C504.014 15.3766 513.153 20.2482 513.386 67.61C513.452 81.1716 511.205 83.4193 511.205 83.4193C511.205 83.4193 468.64 64.356 470.987 52.9858C473.326 41.6062 495.815 44.8602 502.616 31.863C509.407 18.8657 504.022 15.3766 504.022 15.3766H504.014Z" fill="url(#paint7_linear_189_3895)"/>
<path d="M481.524 44.8602C481.524 44.8602 471.22 48.3399 474.965 55.7696C478.711 63.1993 517.531 69.5756 523.69 60.4155C526.969 55.5439 524.863 52.7507 524.863 52.7507C524.863 52.7507 529.782 59.2493 529.316 68.5411C528.85 77.8235 524.863 87.341 526.736 94.0747C528.609 100.808 529.075 101.269 524.63 106.376C520.177 111.483 489.14 115.038 479.185 108.229C472.394 103.583 481.524 100.338 480.592 91.5167C479.66 82.6951 469.114 62.0331 470.987 52.9764C472.86 43.9197 481.533 44.8508 481.533 44.8508L481.524 44.8602Z" fill="url(#paint8_linear_189_3895)"/>
</g>
<path d="M188.977 57.4146C194.627 60.2646 200.977 63.8146 200.977 70.0146C200.977 77.1146 194.977 82.8646 187.627 82.8646C184.477 82.8646 182.127 82.1146 180.327 81.4646C179.377 81.1646 178.477 80.8646 177.927 80.8146H177.727C177.377 80.8646 176.977 81.1646 176.977 82.0146H174.327V69.8646H176.777C178.577 75.6146 183.727 80.3146 186.977 80.3146C191.027 80.3146 193.977 76.7146 193.977 71.9146C193.977 67.7146 190.127 65.7646 186.627 64.0146C186.327 63.8646 185.977 63.7146 185.677 63.5646C180.327 60.8146 174.327 57.7646 174.327 51.1146C174.327 44.0146 178.777 38.2646 186.177 38.2646C189.327 38.2646 191.677 39.0646 193.477 39.6646C194.477 40.0146 195.277 40.2646 195.877 40.3146C196.627 40.3146 196.827 39.9146 196.827 39.1646H199.477V51.3146H196.977C195.177 45.5146 190.077 40.8146 186.827 40.8146C182.877 40.8146 181.027 44.7146 181.027 49.5146C181.027 53.6646 185.227 55.5646 188.977 57.4146ZM227.658 69.4146H233.508C230.708 77.3646 225.058 82.8646 218.508 82.8646C209.558 82.8646 202.258 72.9146 202.258 60.6146C202.258 48.3146 209.308 38.3146 218.058 38.3146C221.808 38.3146 225.908 39.1646 228.408 40.5146L228.308 40.4646L228.458 40.5646C228.608 40.5646 228.808 39.2146 228.808 39.2146H231.758L229.858 49.5646L228.208 49.4646C228.058 47.4146 222.708 40.9146 216.908 40.9146C216.058 40.9146 215.208 41.0646 214.358 41.3646C211.058 42.5146 209.058 48.4146 209.058 55.8146C209.058 57.7146 209.208 59.8146 209.508 61.8146C211.058 72.0646 216.008 80.1646 220.708 80.1646C225.008 80.1646 227.108 73.1646 227.658 69.4146ZM258.188 78.8146C258.188 79.3146 258.888 79.7646 259.838 79.7646V82.0146H249.738V79.7646C250.638 79.7646 251.388 79.3146 251.388 78.8146V60.6146H243.288V78.8146C243.288 79.3146 244.038 79.7646 244.938 79.7646V82.0146H234.838V79.7646C235.788 79.7646 236.538 79.3146 236.538 78.8146V60.6146H234.838V58.3646H236.538V42.4146C236.538 41.8646 235.788 41.4646 234.838 41.4646V39.2146H244.938V41.4646C244.038 41.4646 243.288 41.8646 243.288 42.4146V58.3646H251.388V42.4146C251.388 41.8646 250.638 41.4646 249.738 41.4646V39.2146H259.838V41.4646C258.888 41.4646 258.188 41.8646 258.188 42.4146V78.8146ZM262.231 39.2146H285.081V48.8646H282.581C282.581 48.8646 280.781 41.4646 277.231 41.4646H271.431C271.031 41.4646 270.681 41.8646 270.681 42.4146V58.3646H273.181C274.381 58.3646 277.831 57.9646 278.031 54.5146V53.5646H280.581V65.4646H278.031V64.4646C277.831 61.0146 274.381 60.6146 273.181 60.6146H270.681V78.8146C270.681 79.3146 271.031 79.7646 271.431 79.7646H277.681C281.231 79.7646 283.031 72.3646 283.031 72.3646H285.581V82.0146H262.231V79.7646C263.181 79.7646 263.931 79.3146 263.931 78.8146V60.6146H262.231V58.3646H263.931V42.4146C263.931 41.8646 263.181 41.4646 262.231 41.4646V39.2146ZM301.728 39.1646C309.528 39.1646 315.828 45.4146 315.828 53.1146V68.0646C315.828 75.7646 309.528 82.0146 301.728 82.0146H287.378V79.7646C288.328 79.7646 289.078 79.3146 289.078 78.8146V42.4146C289.078 41.8646 288.328 41.4646 287.378 41.4646V39.2146L301.728 39.1646ZM308.778 68.8646V52.3146C308.778 46.3146 303.978 41.4646 298.078 41.4646H296.578C296.178 41.4646 295.828 41.8646 295.828 42.4146V78.8146C295.828 79.3146 296.178 79.7646 296.578 79.7646H298.228C303.778 79.4646 308.628 74.6146 308.778 68.8646ZM343.486 41.4646H342.586C342.136 41.4646 341.836 41.8646 341.836 42.4146L341.786 72.9646C341.786 77.9646 337.686 82.0146 332.536 82.0146H328.686C323.486 82.0146 319.236 77.9146 319.236 72.8646L319.286 42.4146C319.236 41.9146 318.536 41.4646 317.636 41.4646V39.2146H327.736V41.4646C326.836 41.4646 326.086 41.9146 326.086 42.4146V73.6646C326.086 76.9146 327.286 79.6146 331.786 79.7646H332.436C336.136 79.7646 339.136 76.6646 339.136 72.8646V42.4146C339.136 41.8646 338.386 41.4646 337.486 41.4646V39.2146H343.486V41.4646ZM366.575 70.7146H369.125V82.0146H345.775V79.7646C346.725 79.7646 347.475 79.3146 347.475 78.8146V42.4146C347.475 41.8646 346.725 41.4646 345.775 41.4646V39.2146H355.875V41.4646C354.975 41.4646 354.225 41.8646 354.225 42.4146V78.8146C354.225 79.3146 354.575 79.7646 354.975 79.7646H361.225C364.775 79.7646 366.575 70.7146 366.575 70.7146ZM371.459 39.2146H394.309V48.8646H391.809C391.809 48.8646 390.009 41.4646 386.459 41.4646H380.659C380.259 41.4646 379.909 41.8646 379.909 42.4146V58.3646H382.409C383.609 58.3646 387.059 57.9646 387.259 54.5146V53.5646H389.809V65.4646H387.259V64.4646C387.059 61.0146 383.609 60.6146 382.409 60.6146H379.909V78.8146C379.909 79.3146 380.259 79.7646 380.659 79.7646H386.909C390.459 79.7646 392.259 72.3646 392.259 72.3646H394.809V82.0146H371.459V79.7646C372.409 79.7646 373.159 79.3146 373.159 78.8146V60.6146H371.459V58.3646H373.159V42.4146C373.159 41.8646 372.409 41.4646 371.459 41.4646V39.2146Z" fill="url(#paint9_linear_189_3895)"/>
<defs>
<linearGradient id="paint0_linear_189_3895" x1="45.4356" y1="42.5185" x2="109.391" y2="42.5185" gradientUnits="userSpaceOnUse">
<stop stop-color="#FDF7BF"/>
<stop offset="1" stop-color="#FFCB42"/>
</linearGradient>
<linearGradient id="paint1_linear_189_3895" x1="85.7452" y1="28.5243" x2="109.508" y2="28.5243" gradientUnits="userSpaceOnUse">
<stop stop-color="#F7901E"/>
<stop offset="1" stop-color="#FFCB42"/>
</linearGradient>
<linearGradient id="paint2_linear_189_3895" x1="45.7851" y1="49.4026" x2="88.2837" y2="49.4026" gradientUnits="userSpaceOnUse">
<stop stop-color="#FFCB42"/>
<stop offset="1" stop-color="#F7901E"/>
</linearGradient>
<linearGradient id="paint3_linear_189_3895" x1="29.8294" y1="78.416" x2="88.4168" y2="78.416" gradientUnits="userSpaceOnUse">
<stop stop-color="#FDF7BF"/>
<stop offset="1" stop-color="#FFCB42"/>
</linearGradient>
<linearGradient id="paint4_linear_189_3895" x1="513.744" y1="42.5184" x2="449.788" y2="42.5184" gradientUnits="userSpaceOnUse">
<stop stop-color="#FDF7BF"/>
<stop offset="1" stop-color="#FFCB42"/>
</linearGradient>
<linearGradient id="paint5_linear_189_3895" x1="473.434" y1="28.5243" x2="449.671" y2="28.5243" gradientUnits="userSpaceOnUse">
<stop stop-color="#F7901E"/>
<stop offset="1" stop-color="#FFCB42"/>
</linearGradient>
<radialGradient id="paint6_radial_189_3895" cx="0" cy="0" r="1" gradientUnits="userSpaceOnUse" gradientTransform="translate(279.585 57.9929) scale(242.856 702.487)">
<stop stop-color="#FDF7BF"/>
<stop offset="0.5" stop-color="#FFCB42"/>
<stop offset="1" stop-color="#F7901E"/>
</radialGradient>
<linearGradient id="paint7_linear_189_3895" x1="513.386" y1="49.4026" x2="470.896" y2="49.4026" gradientUnits="userSpaceOnUse">
<stop stop-color="#FFCB42"/>
<stop offset="1" stop-color="#F7901E"/>
</linearGradient>
<linearGradient id="paint8_linear_189_3895" x1="529.35" y1="78.416" x2="470.762" y2="78.416" gradientUnits="userSpaceOnUse">
<stop stop-color="#FDF7BF"/>
<stop offset="1" stop-color="#FFCB42"/>
</linearGradient>
<linearGradient id="paint9_linear_189_3895" x1="284.495" y1="28.0828" x2="284.025" y2="85.8329" gradientUnits="userSpaceOnUse">
<stop stop-color="#F5AC01"/>
<stop offset="1" stop-color="#C03A00"/>
</linearGradient>
<clipPath id="clip0_189_3895">
<rect width="499.52" height="112" fill="white" transform="translate(29.8296)"/>
</clipPath>
</defs>
</svg>
