<svg width="567" height="112" viewBox="0 0 567 112" fill="none" xmlns="http://www.w3.org/2000/svg">
<g clip-path="url(#clip0_1030_26)">
<path d="M98.1196 62.3811C98.1196 62.3811 51.1598 70.3562 47.2645 83.4287C43.3692 96.5012 42.5036 26.2108 55.4795 13.3546C68.4555 0.48908 108.191 -4.25086 108.673 4.3638C108.948 9.17898 98.1112 62.3811 98.1112 62.3811H98.1196Z" fill="url(#paint0_linear_1030_26)"/>
<path d="M99.2012 52.6849C99.2012 52.6849 110.071 9.75262 108.673 4.36375C108.673 4.36375 106.501 14.8311 99.6673 13.9095C92.8339 12.9878 87.8399 11.5677 85.5261 17.5867C85.5261 17.5867 81.0315 31.4492 99.2012 52.6849Z" fill="url(#paint1_linear_1030_26)"/>
<path d="M54.4472 15.3766C54.4472 15.3766 45.3082 20.2482 45.0752 67.61C45.0086 81.1716 47.2559 83.4193 47.2559 83.4193C47.2559 83.4193 89.821 64.356 87.4738 52.9858C85.135 41.6062 62.6456 44.8602 55.8455 31.863C49.0537 18.8657 54.4388 15.3766 54.4388 15.3766H54.4472Z" fill="url(#paint2_linear_1030_26)"/>
<path d="M76.9365 44.8602C76.9365 44.8602 87.2407 48.3399 83.4953 55.7696C79.7498 63.1993 40.9302 69.5756 34.7709 60.4155C31.4916 55.5439 33.5974 52.7507 33.5974 52.7507C33.5974 52.7507 28.6783 59.2493 29.1444 68.5411C29.6105 77.8235 33.5974 87.341 31.7246 94.0747C29.8519 100.808 29.3858 101.269 33.8304 106.376C38.275 111.483 69.3208 115.038 79.2754 108.229C86.0671 103.583 76.9365 100.338 77.8687 91.5167C78.801 82.6951 89.3465 62.0331 87.4738 52.9764C85.601 43.9197 76.9282 44.8508 76.9282 44.8508L76.9365 44.8602Z" fill="url(#paint3_linear_1030_26)"/>
<path d="M459.64 62.3811C459.64 62.3811 506.6 70.3562 510.495 83.4287C514.39 96.5011 515.256 26.2108 502.28 13.3546C489.304 0.498442 449.569 -4.2415 449.086 4.37316C448.812 9.18834 459.648 62.3905 459.648 62.3905L459.64 62.3811Z" fill="url(#paint4_linear_1030_26)"/>
<path d="M458.558 52.6849C458.558 52.6849 447.688 9.75262 449.086 4.36375C449.086 4.36375 451.258 14.8311 458.092 13.9095C464.925 12.9878 469.919 11.5677 472.233 17.5867C472.233 17.5867 476.728 31.4492 458.558 52.6849Z" fill="url(#paint5_linear_1030_26)"/>
<path d="M466.823 55.3088C476.969 18.4425 472.233 17.5773 472.233 17.5773C473.482 27.6779 456.003 28.0917 453.298 26.0321C450.593 23.9725 442.194 22.0915 442.194 22.0915H279.217H115.565C115.565 22.0915 107.167 23.9725 104.462 26.0321C101.757 28.0917 84.2779 27.6779 85.5264 17.5773C85.5264 17.5773 80.7904 18.4425 90.9365 55.3088C95.3062 71.1838 85.7344 82.6293 92.6011 95.7205C95.3062 100.874 115.565 99.2097 115.565 99.2097H278.543H442.194C442.194 99.2097 462.453 100.874 465.158 95.7205C472.025 82.6293 462.453 71.1838 466.823 55.3088Z" fill="url(#paint6_radial_1030_26)"/>
<path d="M503.304 15.3766C503.304 15.3766 512.443 20.2482 512.676 67.61C512.742 81.1716 510.495 83.4193 510.495 83.4193C510.495 83.4193 467.93 64.356 470.277 52.9858C472.616 41.6062 495.105 44.8602 501.906 31.863C508.697 18.8657 503.312 15.3766 503.312 15.3766H503.304Z" fill="url(#paint7_linear_1030_26)"/>
<path d="M480.814 44.8602C480.814 44.8602 470.51 48.3399 474.256 55.7696C478.001 63.1993 516.821 69.5756 522.98 60.4155C526.259 55.5439 524.153 52.7507 524.153 52.7507C524.153 52.7507 529.072 59.2493 528.606 68.5411C528.14 77.8235 524.153 87.341 526.026 94.0747C527.899 100.808 528.365 101.269 523.92 106.376C519.467 111.483 488.43 115.038 478.475 108.229C471.684 103.583 480.814 100.338 479.882 91.5167C478.95 82.6951 468.404 62.0331 470.277 52.9764C472.15 43.9197 480.823 44.8508 480.823 44.8508L480.814 44.8602Z" fill="url(#paint8_linear_1030_26)"/>
</g>
<path d="M168.924 39.1646C170.657 39.1646 172.29 39.5313 173.824 40.2646C175.357 40.9979 176.69 41.9646 177.824 43.1646C178.957 44.3646 179.84 45.7646 180.474 47.3646C181.14 48.9313 181.474 50.5646 181.474 52.2646V53.3146C181.474 55.0146 181.14 56.6146 180.474 58.1146C179.84 59.6146 178.957 60.9146 177.824 62.0146C176.69 63.1146 175.357 63.9979 173.824 64.6646C172.29 65.2979 170.657 65.6146 168.924 65.6146H161.624L161.574 78.8646C161.607 79.0979 161.774 79.3146 162.074 79.5146C162.374 79.6813 162.757 79.7646 163.224 79.7646V82.0146H153.124V79.7646C153.59 79.7646 153.99 79.6813 154.324 79.5146C154.657 79.3479 154.824 79.1313 154.824 78.8646L154.874 65.6146H153.224V63.3646H154.874L154.824 42.4646C154.824 42.1979 154.657 41.9646 154.324 41.7646C153.99 41.5313 153.59 41.4146 153.124 41.4146V39.1646H168.924ZM174.224 52.2646C174.19 50.8979 173.907 49.5646 173.374 48.2646C172.84 46.9646 172.124 45.8146 171.224 44.8146C170.357 43.8146 169.324 43.0146 168.124 42.4146C166.957 41.7813 165.69 41.4646 164.324 41.4646H162.374C162.174 41.4646 161.99 41.5646 161.824 41.7646C161.69 41.9646 161.607 42.1979 161.574 42.4646L161.624 63.3646H164.374C165.707 63.3646 166.957 63.0979 168.124 62.5646C169.29 62.0313 170.307 61.2979 171.174 60.3646C172.074 59.4313 172.79 58.3646 173.324 57.1646C173.857 55.9313 174.157 54.6479 174.224 53.3146V52.2646ZM205.074 39.2146V48.8646H202.574C202.207 47.4979 201.757 46.2646 201.224 45.1646C200.757 44.2313 200.191 43.3813 199.524 42.6146C198.891 41.8479 198.124 41.4646 197.224 41.4646H191.424C191.224 41.4646 191.041 41.5646 190.874 41.7646C190.741 41.9313 190.674 42.1479 190.674 42.4146V58.3646H193.174C193.474 58.3646 193.874 58.3313 194.374 58.2646C194.907 58.1646 195.441 57.9813 195.974 57.7146C196.507 57.4479 196.974 57.0646 197.374 56.5646C197.774 56.0646 197.991 55.3813 198.024 54.5146V53.5646H200.574V65.4646H198.024V64.4646C197.991 63.5979 197.774 62.9146 197.374 62.4146C196.974 61.9146 196.507 61.5313 195.974 61.2646C195.441 60.9979 194.907 60.8313 194.374 60.7646C193.874 60.6646 193.474 60.6146 193.174 60.6146H190.674V78.8146C190.674 79.0813 190.741 79.3146 190.874 79.5146C191.041 79.6813 191.224 79.7646 191.424 79.7646H197.674C198.574 79.7646 199.341 79.3813 199.974 78.6146C200.641 77.8479 201.207 76.9979 201.674 76.0646C202.207 74.9646 202.657 73.7313 203.024 72.3646H205.574V82.0146H182.224V79.7646C182.691 79.7646 183.091 79.6813 183.424 79.5146C183.757 79.3146 183.924 79.0813 183.924 78.8146V60.6146H182.224V58.3646H183.924V42.4146C183.924 42.1479 183.757 41.9313 183.424 41.7646C183.091 41.5646 182.691 41.4646 182.224 41.4646V39.2146H205.074ZM239.583 78.3646C239.117 79.1979 238.533 79.9479 237.833 80.6146C237.233 81.1813 236.467 81.6979 235.533 82.1646C234.6 82.6313 233.467 82.8646 232.133 82.8646C231.1 82.8646 230.267 82.7146 229.633 82.4146C229 82.1146 228.5 81.7146 228.133 81.2146C227.767 80.7146 227.483 80.1646 227.283 79.5646C227.117 78.9313 226.967 78.2979 226.833 77.6646C226.667 76.8979 226.5 76.1479 226.333 75.4146C226.167 74.6479 226 73.8813 225.833 73.1146C225.667 72.3146 225.483 71.4813 225.283 70.6146C225.117 69.7146 224.933 68.8313 224.733 67.9646C224.567 67.0979 224.4 66.2813 224.233 65.5146C224.067 64.7146 223.9 64.0146 223.733 63.4146C223.4 62.3479 222.617 61.6146 221.383 61.2146C220.183 60.8146 218.833 60.6146 217.333 60.6146H215.283V78.8146C215.283 79.0813 215.433 79.3146 215.733 79.5146C216.067 79.6813 216.467 79.7646 216.933 79.7646V82.0146H206.833V79.7646C207.3 79.7646 207.7 79.6813 208.033 79.5146C208.367 79.3146 208.533 79.0813 208.533 78.8146V60.6146H206.883V58.3646H208.533V42.4146C208.533 42.1479 208.367 41.9313 208.033 41.7646C207.7 41.5646 207.3 41.4646 206.833 41.4646V39.2146L221.733 39.1646C223.233 39.1646 224.65 39.4479 225.983 40.0146C227.317 40.5813 228.467 41.3479 229.433 42.3146C230.433 43.2813 231.217 44.4146 231.783 45.7146C232.35 47.0146 232.633 48.3979 232.633 49.8646C232.633 51.9979 232.067 53.9313 230.933 55.6646C229.8 57.3646 228.317 58.6479 226.483 59.5146C227.317 60.0146 228 60.6313 228.533 61.3646C229.1 62.0979 229.567 62.9146 229.933 63.8146C230.333 64.7146 230.65 65.6813 230.883 66.7146C231.15 67.7479 231.4 68.8146 231.633 69.9146C231.7 70.3146 231.783 70.7146 231.883 71.1146C231.983 71.5146 232.083 71.9146 232.183 72.3146C232.317 72.8813 232.433 73.3979 232.533 73.8646C232.633 74.3313 232.733 74.7813 232.833 75.2146C233.133 76.7146 233.4 77.7979 233.633 78.4646C233.867 79.0979 234.233 79.4313 234.733 79.4646C235.033 79.4313 235.35 79.2813 235.683 79.0146C236.017 78.7479 236.333 78.4479 236.633 78.1146C236.933 77.7479 237.25 77.3313 237.583 76.8646L239.583 78.3646ZM225.383 49.9146C225.383 48.7479 225.167 47.6479 224.733 46.6146C224.3 45.5813 223.7 44.6813 222.933 43.9146C222.2 43.1479 221.333 42.5479 220.333 42.1146C219.333 41.6813 218.267 41.4646 217.133 41.4646H216.033C215.833 41.4979 215.65 41.5979 215.483 41.7646C215.35 41.9313 215.283 42.1479 215.283 42.4146V58.3646H217.133C218.267 58.3646 219.333 58.1479 220.333 57.7146C221.333 57.2479 222.2 56.6313 222.933 55.8646C223.7 55.0979 224.3 54.2146 224.733 53.2146C225.167 52.1813 225.383 51.0813 225.383 49.9146ZM267.988 78.7646C268.121 79.0979 268.471 79.3479 269.038 79.5146C269.604 79.6813 270.138 79.7646 270.638 79.7646V82.0146H259.438V79.7646C259.871 79.7646 260.304 79.7313 260.738 79.6646C261.171 79.5979 261.388 79.4979 261.388 79.3646L258.938 70.7646H247.388L245.538 77.2646C245.504 77.3313 245.488 77.4479 245.488 77.6146C245.488 77.8479 245.538 78.0979 245.638 78.3646C245.771 78.5979 245.971 78.8313 246.238 79.0646C246.538 79.2646 246.938 79.4313 247.438 79.5646C247.938 79.6979 248.588 79.7646 249.388 79.7646V82.0146H238.538V79.7646C239.504 79.7646 240.338 79.5479 241.038 79.1146C241.771 78.6479 242.371 77.8479 242.838 76.7146H242.788L244.538 70.7646H241.738V68.5146H245.188L253.588 39.1646H255.988L267.988 78.8146V78.7646ZM258.288 68.5146L253.038 51.2146L248.038 68.5146H258.288ZM293.864 39.2146V50.5146H291.314C290.947 48.8146 290.497 47.2979 289.964 45.9646C289.73 45.3979 289.48 44.8479 289.214 44.3146C288.947 43.7813 288.647 43.2979 288.314 42.8646C287.98 42.4313 287.614 42.0979 287.214 41.8646C286.847 41.5979 286.43 41.4646 285.964 41.4646H284.114C283.914 41.4646 283.73 41.5646 283.564 41.7646C283.43 41.9313 283.364 42.1479 283.364 42.4146V78.8146C283.364 79.0813 283.514 79.3146 283.814 79.5146C284.147 79.6813 284.547 79.7646 285.014 79.7646V82.0146H274.964V79.7646C275.43 79.7646 275.814 79.6813 276.114 79.5146C276.447 79.3146 276.614 79.0813 276.614 78.8146V42.4146C276.614 41.7813 276.464 41.4646 276.164 41.4646H274.014C273.58 41.4646 273.164 41.5979 272.764 41.8646C272.397 42.0979 272.047 42.4313 271.714 42.8646C271.38 43.2979 271.064 43.7813 270.764 44.3146C270.497 44.8479 270.247 45.3979 270.014 45.9646C269.48 47.2979 269.03 48.8146 268.664 50.5146H266.114V39.2146H293.864ZM320.148 41.4646C319.648 41.4646 319.398 41.7813 319.398 42.4146L319.348 72.9646C319.348 74.1979 319.098 75.3646 318.598 76.4646C318.131 77.5646 317.481 78.5313 316.648 79.3646C315.815 80.1979 314.831 80.8479 313.698 81.3146C312.598 81.7813 311.398 82.0146 310.098 82.0146H306.248C304.948 82.0146 303.715 81.7813 302.548 81.3146C301.415 80.8146 300.415 80.1646 299.548 79.3646C298.715 78.5313 298.048 77.5646 297.548 76.4646C297.048 75.3313 296.798 74.1313 296.798 72.8646L296.848 42.4146C296.815 42.1479 296.648 41.9313 296.348 41.7646C296.048 41.5646 295.665 41.4646 295.198 41.4646V39.2146H305.298V41.4646C304.831 41.4646 304.431 41.5646 304.098 41.7646C303.798 41.9313 303.648 42.1479 303.648 42.4146V73.6646C303.648 74.4646 303.731 75.2313 303.898 75.9646C304.065 76.6979 304.365 77.3479 304.798 77.9146C305.231 78.4479 305.815 78.8813 306.548 79.2146C307.281 79.5479 308.215 79.7313 309.348 79.7646H309.998C310.931 79.7646 311.798 79.5813 312.598 79.2146C313.431 78.8479 314.148 78.3646 314.748 77.7646C315.348 77.1313 315.815 76.3979 316.148 75.5646C316.515 74.6979 316.698 73.7979 316.698 72.8646V42.4146C316.698 42.1479 316.531 41.9313 316.198 41.7646C315.898 41.5646 315.515 41.4646 315.048 41.4646V39.2146H321.048V41.4646H320.148ZM356.087 78.3646C355.621 79.1979 355.037 79.9479 354.337 80.6146C353.737 81.1813 352.971 81.6979 352.037 82.1646C351.104 82.6313 349.971 82.8646 348.637 82.8646C347.604 82.8646 346.771 82.7146 346.137 82.4146C345.504 82.1146 345.004 81.7146 344.637 81.2146C344.271 80.7146 343.987 80.1646 343.787 79.5646C343.621 78.9313 343.471 78.2979 343.337 77.6646C343.171 76.8979 343.004 76.1479 342.837 75.4146C342.671 74.6479 342.504 73.8813 342.337 73.1146C342.171 72.3146 341.987 71.4813 341.787 70.6146C341.621 69.7146 341.437 68.8313 341.237 67.9646C341.071 67.0979 340.904 66.2813 340.737 65.5146C340.571 64.7146 340.404 64.0146 340.237 63.4146C339.904 62.3479 339.121 61.6146 337.887 61.2146C336.687 60.8146 335.337 60.6146 333.837 60.6146H331.787V78.8146C331.787 79.0813 331.937 79.3146 332.237 79.5146C332.571 79.6813 332.971 79.7646 333.437 79.7646V82.0146H323.337V79.7646C323.804 79.7646 324.204 79.6813 324.537 79.5146C324.871 79.3146 325.037 79.0813 325.037 78.8146V60.6146H323.387V58.3646H325.037V42.4146C325.037 42.1479 324.871 41.9313 324.537 41.7646C324.204 41.5646 323.804 41.4646 323.337 41.4646V39.2146L338.237 39.1646C339.737 39.1646 341.154 39.4479 342.487 40.0146C343.821 40.5813 344.971 41.3479 345.937 42.3146C346.937 43.2813 347.721 44.4146 348.287 45.7146C348.854 47.0146 349.137 48.3979 349.137 49.8646C349.137 51.9979 348.571 53.9313 347.437 55.6646C346.304 57.3646 344.821 58.6479 342.987 59.5146C343.821 60.0146 344.504 60.6313 345.037 61.3646C345.604 62.0979 346.071 62.9146 346.437 63.8146C346.837 64.7146 347.154 65.6813 347.387 66.7146C347.654 67.7479 347.904 68.8146 348.137 69.9146C348.204 70.3146 348.287 70.7146 348.387 71.1146C348.487 71.5146 348.587 71.9146 348.687 72.3146C348.821 72.8813 348.937 73.3979 349.037 73.8646C349.137 74.3313 349.237 74.7813 349.337 75.2146C349.637 76.7146 349.904 77.7979 350.137 78.4646C350.371 79.0979 350.737 79.4313 351.237 79.4646C351.537 79.4313 351.854 79.2813 352.187 79.0146C352.521 78.7479 352.837 78.4479 353.137 78.1146C353.437 77.7479 353.754 77.3313 354.087 76.8646L356.087 78.3646ZM341.887 49.9146C341.887 48.7479 341.671 47.6479 341.237 46.6146C340.804 45.5813 340.204 44.6813 339.437 43.9146C338.704 43.1479 337.837 42.5479 336.837 42.1146C335.837 41.6813 334.771 41.4646 333.637 41.4646H332.537C332.337 41.4979 332.154 41.5979 331.987 41.7646C331.854 41.9313 331.787 42.1479 331.787 42.4146V58.3646H333.637C334.771 58.3646 335.837 58.1479 336.837 57.7146C337.837 57.2479 338.704 56.6313 339.437 55.8646C340.204 55.0979 340.804 54.2146 341.237 53.2146C341.671 52.1813 341.887 51.0813 341.887 49.9146ZM384.492 78.7646C384.625 79.0979 384.975 79.3479 385.542 79.5146C386.108 79.6813 386.642 79.7646 387.142 79.7646V82.0146H375.942V79.7646C376.375 79.7646 376.808 79.7313 377.242 79.6646C377.675 79.5979 377.892 79.4979 377.892 79.3646L375.442 70.7646H363.892L362.042 77.2646C362.008 77.3313 361.992 77.4479 361.992 77.6146C361.992 77.8479 362.042 78.0979 362.142 78.3646C362.275 78.5979 362.475 78.8313 362.742 79.0646C363.042 79.2646 363.442 79.4313 363.942 79.5646C364.442 79.6979 365.092 79.7646 365.892 79.7646V82.0146H355.042V79.7646C356.008 79.7646 356.842 79.5479 357.542 79.1146C358.275 78.6479 358.875 77.8479 359.342 76.7146H359.292L361.042 70.7646H358.242V68.5146H361.692L370.092 39.1646H372.492L384.492 78.8146V78.7646ZM374.792 68.5146L369.542 51.2146L364.542 68.5146H374.792ZM412.529 41.4646C412.329 41.4646 412.145 41.5646 411.979 41.7646C411.845 41.9313 411.779 42.1479 411.779 42.4146V82.0146H409.379L392.679 45.7646V78.8146C392.679 79.0813 392.829 79.3146 393.129 79.5146C393.462 79.6813 393.862 79.7646 394.329 79.7646V82.0146H388.379V79.7646C388.845 79.7646 389.229 79.6813 389.529 79.5146C389.862 79.3146 390.029 79.0813 390.029 78.8146V42.3646C389.995 42.1313 389.829 41.9313 389.529 41.7646C389.229 41.5646 388.845 41.4646 388.379 41.4646V39.2146H396.729L409.129 65.5646V42.4146C409.129 42.1479 408.962 41.9313 408.629 41.7646C408.329 41.5646 407.945 41.4646 407.479 41.4646V39.2146H413.429V41.4646H412.529Z" fill="url(#paint9_linear_1030_26)"/>
<defs>
<linearGradient id="paint0_linear_1030_26" x1="44.7259" y1="42.5185" x2="108.682" y2="42.5185" gradientUnits="userSpaceOnUse">
<stop stop-color="#FDF7BF"/>
<stop offset="1" stop-color="#FFCB42"/>
</linearGradient>
<linearGradient id="paint1_linear_1030_26" x1="85.035" y1="28.5243" x2="108.798" y2="28.5243" gradientUnits="userSpaceOnUse">
<stop stop-color="#F7901E"/>
<stop offset="1" stop-color="#FFCB42"/>
</linearGradient>
<linearGradient id="paint2_linear_1030_26" x1="45.0752" y1="49.4026" x2="87.5737" y2="49.4026" gradientUnits="userSpaceOnUse">
<stop stop-color="#FFCB42"/>
<stop offset="1" stop-color="#F7901E"/>
</linearGradient>
<linearGradient id="paint3_linear_1030_26" x1="29.1195" y1="78.416" x2="87.7068" y2="78.416" gradientUnits="userSpaceOnUse">
<stop stop-color="#FDF7BF"/>
<stop offset="1" stop-color="#FFCB42"/>
</linearGradient>
<linearGradient id="paint4_linear_1030_26" x1="513.034" y1="42.5184" x2="449.078" y2="42.5184" gradientUnits="userSpaceOnUse">
<stop stop-color="#FDF7BF"/>
<stop offset="1" stop-color="#FFCB42"/>
</linearGradient>
<linearGradient id="paint5_linear_1030_26" x1="472.724" y1="28.5243" x2="448.961" y2="28.5243" gradientUnits="userSpaceOnUse">
<stop stop-color="#F7901E"/>
<stop offset="1" stop-color="#FFCB42"/>
</linearGradient>
<radialGradient id="paint6_radial_1030_26" cx="0" cy="0" r="1" gradientUnits="userSpaceOnUse" gradientTransform="translate(278.876 57.9929) scale(242.856 702.487)">
<stop stop-color="#FDF7BF"/>
<stop offset="0.5" stop-color="#FFCB42"/>
<stop offset="1" stop-color="#F7901E"/>
</radialGradient>
<linearGradient id="paint7_linear_1030_26" x1="512.676" y1="49.4026" x2="470.186" y2="49.4026" gradientUnits="userSpaceOnUse">
<stop stop-color="#FFCB42"/>
<stop offset="1" stop-color="#F7901E"/>
</linearGradient>
<linearGradient id="paint8_linear_1030_26" x1="528.64" y1="78.416" x2="470.052" y2="78.416" gradientUnits="userSpaceOnUse">
<stop stop-color="#FDF7BF"/>
<stop offset="1" stop-color="#FFCB42"/>
</linearGradient>
<linearGradient id="paint9_linear_1030_26" x1="283.786" y1="28.0828" x2="283.315" y2="85.8329" gradientUnits="userSpaceOnUse">
<stop stop-color="#F5AC01"/>
<stop offset="1" stop-color="#C03A00"/>
</linearGradient>
<clipPath id="clip0_1030_26">
<rect width="499.52" height="112" fill="white" transform="translate(29.1196)"/>
</clipPath>
</defs>
</svg>
