<svg width="568" height="112" viewBox="0 0 568 112" fill="none" xmlns="http://www.w3.org/2000/svg">
<g clip-path="url(#clip0_322_470)">
<path d="M98.8295 62.3811C98.8295 62.3811 51.8697 70.3562 47.9745 83.4287C44.0792 96.5012 43.2136 26.2108 56.1895 13.3546C69.1655 0.48908 108.901 -4.25086 109.383 4.3638C109.658 9.17898 98.8212 62.3811 98.8212 62.3811H98.8295Z" fill="url(#paint0_linear_322_470)"/>
<path d="M99.9111 52.6849C99.9111 52.6849 110.781 9.75262 109.383 4.36375C109.383 4.36375 107.211 14.8311 100.377 13.9095C93.5439 12.9878 88.5499 11.5677 86.236 17.5867C86.236 17.5867 81.7415 31.4492 99.9111 52.6849Z" fill="url(#paint1_linear_322_470)"/>
<path d="M55.1571 15.3766C55.1571 15.3766 46.0182 20.2482 45.7851 67.61C45.7186 81.1716 47.9658 83.4193 47.9658 83.4193C47.9658 83.4193 90.5309 64.356 88.1838 52.9858C85.845 41.6062 63.3555 44.8602 56.5554 31.863C49.7637 18.8657 55.1488 15.3766 55.1488 15.3766H55.1571Z" fill="url(#paint2_linear_322_470)"/>
<path d="M77.6465 44.8602C77.6465 44.8602 87.9507 48.3399 84.2052 55.7696C80.4598 63.1993 41.6401 69.5756 35.4809 60.4155C32.2015 55.5439 34.3073 52.7507 34.3073 52.7507C34.3073 52.7507 29.3883 59.2493 29.8544 68.5411C30.3205 77.8235 34.3073 87.341 32.4346 94.0747C30.5619 100.808 30.0958 101.269 34.5404 106.376C38.985 111.483 70.0307 115.038 79.9853 108.229C86.7771 103.583 77.6465 100.338 78.5787 91.5167C79.5109 82.6951 90.0565 62.0331 88.1837 52.9764C86.311 43.9197 77.6382 44.8508 77.6382 44.8508L77.6465 44.8602Z" fill="url(#paint3_linear_322_470)"/>
<path d="M460.35 62.3811C460.35 62.3811 507.31 70.3562 511.205 83.4287C515.1 96.5011 515.966 26.2108 502.99 13.3546C490.014 0.498442 450.279 -4.2415 449.796 4.37316C449.521 9.18834 460.358 62.3905 460.358 62.3905L460.35 62.3811Z" fill="url(#paint4_linear_322_470)"/>
<path d="M459.268 52.6849C459.268 52.6849 448.398 9.75262 449.796 4.36375C449.796 4.36375 451.968 14.8311 458.802 13.9095C465.635 12.9878 470.629 11.5677 472.943 17.5867C472.943 17.5867 477.438 31.4492 459.268 52.6849Z" fill="url(#paint5_linear_322_470)"/>
<path d="M467.533 55.3088C477.679 18.4425 472.943 17.5773 472.943 17.5773C474.191 27.6779 456.713 28.0917 454.008 26.0321C451.303 23.9725 442.904 22.0915 442.904 22.0915H279.927H116.275C116.275 22.0915 107.877 23.9725 105.172 26.0321C102.467 28.0917 84.9878 27.6779 86.2363 17.5773C86.2363 17.5773 81.5004 18.4425 91.6464 55.3088C96.0162 71.1838 86.4444 82.6293 93.3111 95.7206C96.0162 100.874 116.275 99.2097 116.275 99.2097H279.253H442.904C442.904 99.2097 463.163 100.874 465.868 95.7206C472.735 82.6293 463.163 71.1838 467.533 55.3088Z" fill="url(#paint6_radial_322_470)"/>
<path d="M504.014 15.3766C504.014 15.3766 513.153 20.2482 513.386 67.61C513.452 81.1716 511.205 83.4193 511.205 83.4193C511.205 83.4193 468.64 64.356 470.987 52.9858C473.326 41.6062 495.815 44.8602 502.616 31.863C509.407 18.8657 504.022 15.3766 504.022 15.3766H504.014Z" fill="url(#paint7_linear_322_470)"/>
<path d="M481.524 44.8602C481.524 44.8602 471.22 48.3399 474.965 55.7696C478.711 63.1993 517.531 69.5756 523.69 60.4155C526.969 55.5439 524.863 52.7507 524.863 52.7507C524.863 52.7507 529.782 59.2493 529.316 68.5411C528.85 77.8235 524.863 87.341 526.736 94.0747C528.609 100.808 529.075 101.269 524.63 106.376C520.177 111.483 489.14 115.038 479.185 108.229C472.394 103.583 481.524 100.338 480.592 91.5167C479.66 82.6951 469.114 62.0331 470.987 52.9764C472.86 43.9197 481.533 44.8508 481.533 44.8508L481.524 44.8602Z" fill="url(#paint8_linear_322_470)"/>
</g>
<path d="M247.033 76.8646L249.033 78.3646C249.033 78.3646 246.883 82.8646 241.583 82.8646C237.433 82.8646 236.833 80.1646 236.283 77.6646C235.933 76.1646 235.583 74.6646 235.283 73.1146C234.633 69.9646 233.783 65.7646 233.183 63.4146C232.533 61.2646 229.733 60.6146 226.783 60.6146H224.733V78.8146C224.733 79.3146 225.483 79.7646 226.383 79.7646V82.0146H216.283V79.7646C217.233 79.7646 217.983 79.3146 217.983 78.8146V60.6146H216.333V58.3646H217.983V42.4146C217.983 41.8646 217.233 41.4646 216.283 41.4646V39.2146L231.183 39.1646C237.233 39.1646 242.083 43.9646 242.083 49.8646C242.083 54.1146 239.583 57.7646 235.933 59.5146C239.283 61.4646 240.133 65.5146 241.083 69.9146C241.233 70.7146 241.433 71.5146 241.633 72.3146C241.883 73.4146 242.083 74.3646 242.283 75.2146C242.883 78.1646 243.183 79.4146 244.183 79.4646C245.383 79.3646 247.033 76.8646 247.033 76.8646ZM234.833 49.9146C234.833 45.2146 231.133 41.4646 226.583 41.4646H225.483C225.083 41.5146 224.733 41.9146 224.733 42.4146V58.3646H226.583C231.133 58.3646 234.833 54.5646 234.833 49.9146ZM272.686 41.4646H271.786C271.336 41.4646 271.036 41.8646 271.036 42.4146L270.986 72.9646C270.986 77.9646 266.886 82.0146 261.736 82.0146H257.886C252.686 82.0146 248.436 77.9146 248.436 72.8646L248.486 42.4146C248.436 41.9146 247.736 41.4646 246.836 41.4646V39.2146H256.936V41.4646C256.036 41.4646 255.286 41.9146 255.286 42.4146V73.6646C255.286 76.9146 256.486 79.6146 260.986 79.7646H261.636C265.336 79.7646 268.336 76.6646 268.336 72.8646V42.4146C268.336 41.8646 267.586 41.4646 266.686 41.4646V39.2146H272.686V41.4646ZM295.775 70.7146H298.325V82.0146H274.975V79.7646C275.925 79.7646 276.675 79.3146 276.675 78.8146V42.4146C276.675 41.8646 275.925 41.4646 274.975 41.4646V39.2146H285.075V41.4646C284.175 41.4646 283.425 41.8646 283.425 42.4146V78.8146C283.425 79.3146 283.775 79.7646 284.175 79.7646H290.425C293.975 79.7646 295.775 70.7146 295.775 70.7146ZM300.658 39.2146H323.508V48.8646H321.008C321.008 48.8646 319.208 41.4646 315.658 41.4646H309.858C309.458 41.4646 309.108 41.8646 309.108 42.4146V58.3646H311.608C312.808 58.3646 316.258 57.9646 316.458 54.5146V53.5646H319.008V65.4646H316.458V64.4646C316.258 61.0146 312.808 60.6146 311.608 60.6146H309.108V78.8146C309.108 79.3146 309.458 79.7646 309.858 79.7646H316.108C319.658 79.7646 321.458 72.3646 321.458 72.3646H324.008V82.0146H300.658V79.7646C301.608 79.7646 302.358 79.3146 302.358 78.8146V60.6146H300.658V58.3646H302.358V42.4146C302.358 41.8646 301.608 41.4646 300.658 41.4646V39.2146ZM340.344 57.4146C345.994 60.2646 352.344 63.8146 352.344 70.0146C352.344 77.1146 346.344 82.8646 338.994 82.8646C335.844 82.8646 333.494 82.1146 331.694 81.4646C330.744 81.1646 329.844 80.8646 329.294 80.8146H329.094C328.744 80.8646 328.344 81.1646 328.344 82.0146H325.694V69.8646H328.144C329.944 75.6146 335.094 80.3146 338.344 80.3146C342.394 80.3146 345.344 76.7146 345.344 71.9146C345.344 67.7146 341.494 65.7646 337.994 64.0146C337.694 63.8646 337.344 63.7146 337.044 63.5646C331.694 60.8146 325.694 57.7646 325.694 51.1146C325.694 44.0146 330.144 38.2646 337.544 38.2646C340.694 38.2646 343.044 39.0646 344.844 39.6646C345.844 40.0146 346.644 40.2646 347.244 40.3146C347.994 40.3146 348.194 39.9146 348.194 39.1646H350.844V51.3146H348.344C346.544 45.5146 341.444 40.8146 338.194 40.8146C334.244 40.8146 332.394 44.7146 332.394 49.5146C332.394 53.6646 336.594 55.5646 340.344 57.4146Z" fill="url(#paint9_linear_322_470)"/>
<defs>
<linearGradient id="paint0_linear_322_470" x1="45.4359" y1="42.5185" x2="109.392" y2="42.5185" gradientUnits="userSpaceOnUse">
<stop stop-color="#FDF7BF"/>
<stop offset="1" stop-color="#FFCB42"/>
</linearGradient>
<linearGradient id="paint1_linear_322_470" x1="85.745" y1="28.5243" x2="109.508" y2="28.5243" gradientUnits="userSpaceOnUse">
<stop stop-color="#F7901E"/>
<stop offset="1" stop-color="#FFCB42"/>
</linearGradient>
<linearGradient id="paint2_linear_322_470" x1="45.7851" y1="49.4026" x2="88.2837" y2="49.4026" gradientUnits="userSpaceOnUse">
<stop stop-color="#FFCB42"/>
<stop offset="1" stop-color="#F7901E"/>
</linearGradient>
<linearGradient id="paint3_linear_322_470" x1="29.8294" y1="78.416" x2="88.4168" y2="78.416" gradientUnits="userSpaceOnUse">
<stop stop-color="#FDF7BF"/>
<stop offset="1" stop-color="#FFCB42"/>
</linearGradient>
<linearGradient id="paint4_linear_322_470" x1="513.744" y1="42.5184" x2="449.788" y2="42.5184" gradientUnits="userSpaceOnUse">
<stop stop-color="#FDF7BF"/>
<stop offset="1" stop-color="#FFCB42"/>
</linearGradient>
<linearGradient id="paint5_linear_322_470" x1="473.434" y1="28.5243" x2="449.671" y2="28.5243" gradientUnits="userSpaceOnUse">
<stop stop-color="#F7901E"/>
<stop offset="1" stop-color="#FFCB42"/>
</linearGradient>
<radialGradient id="paint6_radial_322_470" cx="0" cy="0" r="1" gradientUnits="userSpaceOnUse" gradientTransform="translate(279.585 57.9929) scale(242.856 702.487)">
<stop stop-color="#FDF7BF"/>
<stop offset="0.5" stop-color="#FFCB42"/>
<stop offset="1" stop-color="#F7901E"/>
</radialGradient>
<linearGradient id="paint7_linear_322_470" x1="513.386" y1="49.4026" x2="470.896" y2="49.4026" gradientUnits="userSpaceOnUse">
<stop stop-color="#FFCB42"/>
<stop offset="1" stop-color="#F7901E"/>
</linearGradient>
<linearGradient id="paint8_linear_322_470" x1="529.35" y1="78.416" x2="470.762" y2="78.416" gradientUnits="userSpaceOnUse">
<stop stop-color="#FDF7BF"/>
<stop offset="1" stop-color="#FFCB42"/>
</linearGradient>
<linearGradient id="paint9_linear_322_470" x1="284.496" y1="28.0828" x2="284.025" y2="85.8329" gradientUnits="userSpaceOnUse">
<stop stop-color="#F5AC01"/>
<stop offset="1" stop-color="#C03A00"/>
</linearGradient>
<clipPath id="clip0_322_470">
<rect width="499.52" height="112" fill="white" transform="translate(29.8296)"/>
</clipPath>
</defs>
</svg>
